<?xml version='1.0' encoding='utf-8'?>
<svg xmlns="http://www.w3.org/2000/svg" width="4000" height="2250" viewBox="0 0 1058.3334 595.31249" version="1.1" id="svg8"> <defs id="defs2"/> <metadata id="metadata5"> </metadata> <g id="layer1" transform="translate(0,298.31249)"> <rect style="opacity:1;fill:#2c2525;fill-opacity:1;stroke:none;stroke-width:1.80226481;stroke-linejoin:bevel;stroke-miterlimit:4;stroke-dasharray:none;stroke-opacity:1" id="rect1141" width="1058.1565" height="613.83331" x="0.35111439" y="-301.71426"/> <g id="g1219"> <g id="g916" style="stroke-width:2.8;stroke-miterlimit:4;stroke-dasharray:none"> <circle style="opacity:1;fill:none;fill-opacity:1;stroke:#41c918;stroke-width:2.8;stroke-linejoin:round;stroke-miterlimit:4;stroke-dasharray:none;stroke-opacity:1" id="path880" cx="1033.0088" cy="61.142849" r="5.0717163"/> <path style="fill:none;stroke:#41c918;stroke-width:2.8;stroke-linecap:butt;stroke-linejoin:miter;stroke-miterlimit:4;stroke-dasharray:none;stroke-opacity:1" d="m 1037.8754,61.473592 20.647,0.26727" id="path882"/> </g> <g id="g898" style="stroke-width:2.8;stroke-miterlimit:4;stroke-dasharray:none"> <circle r="5.0717163" cy="61.520824" cx="1012.9761" id="circle884" style="opacity:1;fill:none;fill-opacity:1;stroke:#41c918;stroke-width:2.8;stroke-linejoin:round;stroke-miterlimit:4;stroke-dasharray:none;stroke-opacity:1"/> <path style="fill:none;stroke:#41c918;stroke-width:2.8;stroke-linecap:butt;stroke-linejoin:miter;stroke-miterlimit:4;stroke-dasharray:none;stroke-opacity:1" d="M 1007.6845,62.27678 H 923.77381" id="path886"/> </g> <path id="path902" d="m 914.78136,41.110136 0.13363,15.875 5.24441,5.244412 h 11.38653 v 0.330729" style="fill:none;stroke:#41c918;stroke-width:2.8;stroke-linecap:butt;stroke-linejoin:miter;stroke-miterlimit:4;stroke-dasharray:none;stroke-opacity:1"/> <path id="path918" d="m 861.675,41.110136 -0.0783,19.654762 13.79612,10.205349 H 936.247 l 0.189,-0.188992" style="fill:none;stroke:#41c918;stroke-width:2.8;stroke-linecap:butt;stroke-linejoin:miter;stroke-miterlimit:4;stroke-dasharray:none;stroke-opacity:1"/> <ellipse ry="4.4708753" rx="4.5965066" style="opacity:1;fill:none;fill-opacity:1;stroke:#41c918;stroke-width:2.8;stroke-linejoin:round;stroke-miterlimit:4;stroke-dasharray:none;stroke-opacity:1" id="circle920" cx="955.28345" cy="70.835762"/> <ellipse ry="4.4708819" rx="4.5963821" cy="71.027336" cx="941.11279" id="circle926" style="opacity:1;fill:none;fill-opacity:1;stroke:#41c918;stroke-width:2.8;stroke-linejoin:round;stroke-miterlimit:4;stroke-dasharray:none;stroke-opacity:1"/> <path id="path936" d="m 818.24565,41.110136 0.13363,32.987089 22.98518,21.916099 164.63804,1.603613 13.3635,-12.828931 39.1564,0.133635" style="fill:none;stroke:#41c918;stroke-width:2.8;stroke-linecap:butt;stroke-linejoin:miter;stroke-miterlimit:4;stroke-dasharray:none;stroke-opacity:1"/> <path id="path938" d="m 1034.3331,85.055261 10.1562,12.561676 14.0331,-0.133635" style="fill:none;stroke:#41c918;stroke-width:2.8;stroke-linecap:butt;stroke-linejoin:miter;stroke-miterlimit:4;stroke-dasharray:none;stroke-opacity:1"/> <path id="path940" d="m 874.25891,95.538688 26.45834,-15.875 157.80515,-0.400904" style="fill:none;stroke:#41c918;stroke-width:2.8;stroke-linecap:butt;stroke-linejoin:miter;stroke-miterlimit:4;stroke-dasharray:none;stroke-opacity:1"/> <path id="path961" d="m 837.65059,41.110136 0.13363,22.48956" style="fill:none;stroke:#41c918;stroke-width:2.8;stroke-linecap:butt;stroke-linejoin:miter;stroke-miterlimit:4;stroke-dasharray:none;stroke-opacity:1"/> <ellipse style="opacity:1;fill:none;fill-opacity:1;stroke:#41c918;stroke-width:2.8;stroke-linejoin:round;stroke-miterlimit:4;stroke-dasharray:none;stroke-opacity:1" id="ellipse963" cx="837.94678" cy="68.102196" rx="4.5963821" ry="4.4708819"/> <path style="fill:none;stroke:#41c918;stroke-width:2.8;stroke-linecap:butt;stroke-linejoin:miter;stroke-miterlimit:4;stroke-dasharray:none;stroke-opacity:1" d="m 778.18312,41.110136 -0.26727,21.153212" id="path965"/> <ellipse ry="4.4708819" rx="4.5963821" cy="66.765846" cx="778.07843" id="ellipse967" style="opacity:1;fill:none;fill-opacity:1;stroke:#41c918;stroke-width:2.8;stroke-linejoin:round;stroke-miterlimit:4;stroke-dasharray:none;stroke-opacity:1"/> <ellipse style="opacity:1;fill:none;fill-opacity:1;stroke:#41c918;stroke-width:2.8;stroke-linejoin:round;stroke-miterlimit:4;stroke-dasharray:none;stroke-opacity:1" id="ellipse969" cx="778.07843" cy="83.202919" rx="4.5963821" ry="4.4708819"/> <path id="path971" d="m 782.83244,83.451648 h 18.70887 l 23.92061,23.920632 h 95.01433 l 0.26726,-0.40092" style="fill:none;stroke:#41c918;stroke-width:2.8;stroke-linecap:butt;stroke-linejoin:miter;stroke-miterlimit:4;stroke-dasharray:none;stroke-opacity:1"/> <ellipse cy="106.91714" cx="939.24725" id="ellipse973" style="opacity:1;fill:none;fill-opacity:1;stroke:#41c918;stroke-width:2.8;stroke-linejoin:round;stroke-miterlimit:4;stroke-dasharray:none;stroke-opacity:1" rx="4.5965066" ry="4.4708753"/> <ellipse style="opacity:1;fill:none;fill-opacity:1;stroke:#41c918;stroke-width:2.8;stroke-linejoin:round;stroke-miterlimit:4;stroke-dasharray:none;stroke-opacity:1" id="ellipse975" cx="925.0766" cy="107.10872" rx="4.5963821" ry="4.4708819"/> <path id="path977" d="m 943.80655,107.06698 h 65.95685 l 10.9613,-10.961316" style="fill:none;stroke:#41c918;stroke-width:2.8;stroke-linecap:butt;stroke-linejoin:miter;stroke-miterlimit:4;stroke-dasharray:none;stroke-opacity:1"/> <ellipse ry="4.4708753" rx="4.5965066" style="opacity:1;fill:none;fill-opacity:1;stroke:#41c918;stroke-width:2.8;stroke-linejoin:round;stroke-miterlimit:4;stroke-dasharray:none;stroke-opacity:1" id="ellipse979" cx="1025.2594" cy="95.932899"/> <path id="path981" d="m 755.57093,41.110136 v 33.521627 l 28.86512,28.865117 h 23.51971 l 14.69983,14.6998 h 182.54511 9.6217 l 11.6262,-11.62622 32.0738,-0.13363" style="fill:none;stroke:#41c918;stroke-width:2.8;stroke-linecap:butt;stroke-linejoin:miter;stroke-miterlimit:4;stroke-dasharray:none;stroke-opacity:1"/> <path id="path983" d="m 1038.8676,106.689 12.2842,12.28423 7.3706,0.13363" style="fill:none;stroke:#41c918;stroke-width:2.8;stroke-linecap:butt;stroke-linejoin:miter;stroke-miterlimit:4;stroke-dasharray:none;stroke-opacity:1"/> <path id="path985" d="m 733.1203,41.110136 v 43.67787 l 14.16529,14.165289 -1.33634,1.336335" style="fill:none;stroke:#41c918;stroke-width:2.8;stroke-linecap:butt;stroke-linejoin:miter;stroke-miterlimit:4;stroke-dasharray:none;stroke-opacity:1"/> <ellipse style="opacity:1;fill:none;fill-opacity:1;stroke:#41c918;stroke-width:2.8;stroke-linejoin:round;stroke-miterlimit:4;stroke-dasharray:none;stroke-opacity:1" id="ellipse987" cx="750.54968" cy="102.04543" rx="4.5963821" ry="4.4708819"/> <ellipse ry="4.4708819" rx="4.5963821" cy="118.88342" cx="767.12042" id="ellipse989" style="opacity:1;fill:none;fill-opacity:1;stroke:#41c918;stroke-width:2.8;stroke-linejoin:round;stroke-miterlimit:4;stroke-dasharray:none;stroke-opacity:1"/> <path id="path991" d="m 769.20168,114.45491 6.41448,-6.41445 h 22.45064 l 19.37705,19.37703 h 51.44937 v 1.46997" style="fill:none;stroke:#41c918;stroke-width:2.8;stroke-linecap:butt;stroke-linejoin:miter;stroke-miterlimit:4;stroke-dasharray:none;stroke-opacity:1"/> <ellipse ry="4.4708753" rx="4.5965066" style="opacity:1;fill:none;fill-opacity:1;stroke:#41c918;stroke-width:2.8;stroke-linejoin:round;stroke-miterlimit:4;stroke-dasharray:none;stroke-opacity:1" id="ellipse993" cx="887.93152" cy="127.76416"/> <ellipse ry="4.4708819" rx="4.5963821" cy="127.95574" cx="873.76086" id="ellipse995" style="opacity:1;fill:none;fill-opacity:1;stroke:#41c918;stroke-width:2.8;stroke-linejoin:round;stroke-miterlimit:4;stroke-dasharray:none;stroke-opacity:1"/> <path id="path997" d="m 892.41293,128.08567 166.10947,-0.13363" style="fill:none;stroke:#41c918;stroke-width:2.8;stroke-linecap:butt;stroke-linejoin:miter;stroke-miterlimit:4;stroke-dasharray:none;stroke-opacity:1"/> <path id="path999" d="m 701.18161,41.110136 0.13363,38.867004 59.33381,59.33384 297.87335,0.53454" style="fill:none;stroke:#41c918;stroke-width:2.8;stroke-linecap:butt;stroke-linejoin:miter;stroke-miterlimit:4;stroke-dasharray:none;stroke-opacity:1"/> <ellipse cy="80.517136" cx="844.0863" id="ellipse1001" style="opacity:1;fill:none;fill-opacity:1;stroke:#41c918;stroke-width:2.8;stroke-linejoin:round;stroke-miterlimit:4;stroke-dasharray:none;stroke-opacity:1" rx="4.5965066" ry="4.4708753"/> <path id="path1003" d="m 848.55655,80.230664 h 7.74851 l 6.42559,6.425591 v 9.6384 h 0.94493" style="fill:none;stroke:#41c918;stroke-width:2.8;stroke-linecap:butt;stroke-linejoin:miter;stroke-miterlimit:4;stroke-dasharray:none;stroke-opacity:1"/> <path id="path1005" d="m 960.03212,71.157255 98.49028,0.133635" style="fill:none;stroke:#41c918;stroke-width:2.8;stroke-linecap:butt;stroke-linejoin:miter;stroke-miterlimit:4;stroke-dasharray:none;stroke-opacity:1"/> <path id="path1007" d="m 800.63376,41.110136 -0.26727,20.351403" style="fill:none;stroke:#41c918;stroke-width:2.8;stroke-linecap:butt;stroke-linejoin:miter;stroke-miterlimit:4;stroke-dasharray:none;stroke-opacity:1"/> <ellipse style="opacity:1;fill:none;fill-opacity:1;stroke:#41c918;stroke-width:2.8;stroke-linejoin:round;stroke-miterlimit:4;stroke-dasharray:none;stroke-opacity:1" id="ellipse1009" cx="800.52905" cy="65.964035" rx="4.5963821" ry="4.4708819"/> </g> <path style="fill:none;stroke:#41c918;stroke-width:3;stroke-linecap:butt;stroke-linejoin:miter;stroke-miterlimit:4;stroke-dasharray:none;stroke-opacity:1" d="m 678.33006,40.575598 c 0,0 -18.73911,-3.267063 -13.89803,-24.856063 4.59748,-20.5026531 32.07234,-19.5106721 32.07234,-19.5106721 0,0 3.64626,-15.3534929 20.31248,-22.1833719 16.76625,-6.870873 34.2105,-1.870888 34.2105,-1.870888 0,0 -7.44386,-44.9503 53.4539,-68.153729 60.89776,-23.203434 95.14796,37.417734 95.14796,37.417734 0,0 26.06498,-15.421374 56.39388,7.750816 26.76896,20.452292 21.64883,39.02135 21.64883,39.02135 0,0 31.79288,-17.411683 43.83218,18.1743259 6.5098,19.2417491 -9.0872,34.7450361 -9.0872,34.7450361 z" id="path1055"/> <path style="fill:none;stroke:#41c918;stroke-width:11.33858299;stroke-linecap:butt;stroke-linejoin:miter;stroke-miterlimit:4;stroke-dasharray:none;stroke-opacity:1" d="M 2711.6914 534.8457 C 2689.6491 534.61803 2665.6654 539.81969 2639.8262 552.59375 C 2482.3302 630.45474 2501.582 781.28906 2501.582 781.28906 C 2501.582 781.28906 2456.4669 764.5126 2413.1055 787.56836 C 2370.0027 810.48656 2360.5723 862.00586 2360.5723 862.00586 C 2360.5723 862.00586 2289.5171 858.67632 2277.627 927.47461 C 2265.1068 999.91822 2313.5703 1010.8809 2313.5703 1010.8809 L 2837.623 1011.9688 C 2837.9295 1018.4934 2838.5293 1022.2383 2838.5293 1022.2383 C 2838.5293 1022.2383 2772.597 1003.3399 2709.2285 1029.3086 C 2646.2381 1055.1223 2632.457 1113.1523 2632.457 1113.1523 C 2632.457 1113.1523 2528.6146 1109.4022 2511.2383 1186.8926 C 2492.9413 1268.4888 2563.7676 1280.8359 2563.7676 1280.8359 L 3826.457 1282.8574 C 3826.457 1282.8574 3885.4067 1224.2618 3860.8027 1151.5371 C 3815.2999 1017.0388 3695.1387 1082.8477 3695.1387 1082.8477 C 3695.1387 1082.8477 3714.4904 1012.6652 3613.3164 935.36523 C 3498.6875 847.7853 3400.1738 906.07031 3400.1738 906.07031 C 3400.1738 906.07031 3281.8792 696.71439 3070.3984 754.86523 C 3061.8759 739.01319 3049.5416 721.79722 3031.75 704.16016 C 2953.3123 626.40401 2885.9023 678.15234 2885.9023 678.15234 C 2885.9023 678.15234 2824.0024 536.00573 2711.6914 534.8457 z " transform="matrix(0.26458333,0,0,0.26458333,0,-298.31249)" id="path1057"/> </g> </svg>