<?xml version="1.0" encoding="UTF-8"?>
<svg version="1.1" viewBox="0 0 1718.6 992.73" xmlns="http://www.w3.org/2000/svg">
 <g transform="translate(855.6 -221.09)">
  <rect x="-855.6" y="221.09" width="1718.6" height="992.73" fill="#929292"/>
  <path d="m844.49 1214v-92.934h-1701.1v92.934z" fill="#fff"/>
  <path transform="translate(-855.6 221.09)" d="m1700.1 902.44c-0.8571 0.19249-311.74 70.009-404.28 90.469h403.09l1.1876-64v-26.469z" fill="#ccc"/>
  <path d="m-856.61 1121.1h1701.1v92.934" fill="none" stroke="#000" stroke-dashoffset=".8" stroke-linejoin="round" stroke-width="12"/>
  <path d="m830.5 1121.1-430.62 92.938h49.412l394.35-84.113-4.5152-8.8242z" color="#000000" style="block-progression:tb;text-indent:0;text-transform:none"/>
  <path d="m-486.39 1077.6 440.43 0.505 88.388 31.82 1.0102 26.264h-522.25" fill="#ccc" stroke="#000" stroke-dashoffset=".8" stroke-linejoin="round" stroke-width="12"/>
  <path d="m-46.467 1079.1-1.5004 53.712" fill="none" stroke="#000" stroke-dashoffset=".8" stroke-linejoin="round" stroke-width="12"/>
  <path d="m-741.96 614.97 118.69 438.41 476.79-13.132 34.375-37.16-109.27-532.77-485.88 1e-5 -37.232 34.548z" fill="#fff" stroke="#000" stroke-dashoffset=".8" stroke-linejoin="round" stroke-width="12"/>
  <path transform="translate(-855.6 221.09)" d="m634.34 249.81l-35.406 38.281-61.094 102.5 93.938 409.28-168.56 5.7188-45.188 21.562 291.09-8 34.375-37.156-109.16-532.19z" fill="#ccc" stroke="#000" stroke-linecap="round" stroke-linejoin="round" stroke-width="12"/>
  <path d="m-745.49 506.88 488.91 2.0203 108.09 529.32" fill="none" stroke="#000" stroke-dashoffset=".8" stroke-linejoin="round" stroke-width="12"/>
  <path d="m-223.58 1021.1-94.623-408.15-423.76 2.0203" fill="none" stroke="#000" stroke-dashoffset=".8" stroke-linejoin="round" stroke-width="12"/>
  <path d="m-319.21 612.95 60.609-103.04" fill="none" stroke="#000" stroke-dashoffset=".8" stroke-linejoin="round" stroke-width="12"/>
  <path d="m-149.5 1040.2-74.073-19.142-158.68 5.6635" fill="none" stroke="#000" stroke-dashoffset=".8" stroke-linejoin="round" stroke-width="12"/>
  <path d="m-729.33 1180.7s67.68-67.68 67.68-71.721 47.477-387.9 47.477-387.9l234.36 2.0203 31.315 124.25-36.365 244.46 79.455 63.783-93.598 25.11z" fill="#fff" stroke="#000" stroke-dashoffset=".8" stroke-linejoin="round" stroke-width="12"/>
  <path transform="translate(-855.6 221.09)" d="m476.47 504.72-2.7188 1.2812l-45.438 378.81 27.906 74.75h0.375l93.591-25.095-79.466-63.812 36.375-244.44z" fill="#ccc" stroke="#000" stroke-dashoffset=".8" stroke-linejoin="round" stroke-width="12"/>
  <path d="m-385.88 1093.8-40.406 13.132-234.36 1.0102" fill="none" stroke="#000" stroke-dashoffset=".8" stroke-linejoin="round" stroke-width="12"/>
  <path d="m668.57 1116.6c-1.265-167.82-57.358-267.11-118.57-360" fill="none" stroke="#000" stroke-dashoffset=".8" stroke-linecap="round" stroke-linejoin="round" stroke-width="14"/>
  <path d="m678.57 379.51c56.437 94.554 36.096 239.28-30 331.43s-207.2 156.16-314.29 148.57-190.8-97.192-230-187.14c-39.202-89.951-30.503-211.34 21.429-291.43 51.932-80.084 148.6-126.88 250-127.14s246.42 31.16 302.86 125.71z" fill="#fff" stroke="#000" stroke-dashoffset=".8" stroke-linecap="round" stroke-linejoin="round" stroke-width="16"/>
  <path d="m62.951 547.9c23.863 3.5913 39.282 8.0625 107.43 8.3622 14.184 0.0624 30.022-7.3168 30.753-17.328" fill="none" stroke="#000" stroke-dashoffset=".8" stroke-linecap="round" stroke-linejoin="round" stroke-width="12"/>
  <path d="m88.893 624.06c29.884 8.0812 72.606 10.153 90.138-6.9665 17.532-17.12 6.8365-59.451 2.7959-67.532" fill="none" stroke="#000" stroke-dashoffset=".8" stroke-linejoin="round" stroke-width="12"/>
  <path d="m270.74 540.65c-2.1831 21.868 18.49 22.653 35.891 20.21 64.54-9.0579 113.27-21.883 160.69-36.206 22.954 40.009 4.3331 81.323-17.713 96.305-36.266 24.646-103.46 25.506-138.01 0.32708-21.933-15.984-25.665-36.968-21.786-58.214" fill="none" stroke="#000" stroke-dashoffset=".8" stroke-linecap="round" stroke-linejoin="round" stroke-width="12"/>
  <path transform="matrix(.66667 0 0 .66667 108.19 199.24)" d="m342.95 590.22a15.152 15.152 0 1 1 -30.305 0 15.152 15.152 0 1 1 30.305 0z"/>
  <path transform="matrix(.66667 0 0 .66667 -101.95 193.2)" d="m342.95 590.22a15.152 15.152 0 1 1 -30.305 0 15.152 15.152 0 1 1 30.305 0z"/>
  <path d="m205 713.08c30.174-23.823 56.735-19.521 87.857 2.1428" fill="none" stroke="#000" stroke-linecap="round" stroke-width="6"/>
  <path d="m602.86 848.08c4.4124 91.874-31.512 242.2-78.571 290-11.085-122.01-93.949-448.34-294.29-448.57-134.33-0.15789-130.1 276.37-79.963 428.82 8.0797 24.566 12.98 20.663 31.537 10.542 160.7-87.638 229.53-198.26 319.4-303.62" fill="none" stroke="#000" stroke-dashoffset=".8" stroke-linecap="round" stroke-linejoin="round" stroke-width="14"/>
  <path transform="translate(-855.6 221.09)" d="m1082.3 315.91c1.1064 5.85-1.0813 18.125-7.4281 21.609" fill="none" stroke="#000" stroke-dashoffset=".8" stroke-linecap="round" stroke-linejoin="round" stroke-width="7"/>
  <path transform="translate(-855.6 221.09)" d="m1094.1 316.09c-0.8358 9.9914 1.7119 14.858 7.089 22.569" fill="none" stroke="#000" stroke-dashoffset=".8" stroke-linecap="round" stroke-linejoin="round" stroke-width="7"/>
  <path d="m234.65 746.05c8.4471-4.8589 26.123-5.241 35.452 2.4926" fill="none" stroke="#000" stroke-linecap="round" stroke-width="6"/>
  <path transform="translate(-855.6 221.09)" d="m599.02 289.66 33.783-37.997" fill="#fff" stroke="#000" stroke-width="12"/>
 </g>
</svg>
