<?xml version="1.0" encoding="UTF-8"?>
<svg viewBox="0 0 150.17673 68.384941" xmlns="http://www.w3.org/2000/svg">
 <g transform="translate(-373.48 -458.17)">
  <path d="m373.48 458.84c4.888-2.476 6.1646 2.4349 7.4733 6.0452 5.416 18.139 5.3841 36.54 7.3006 54.83 0.31164 3.8348 0.23133 1.9695 0.26389 5.5956l-1.9077 0.08279c-1.0249-3.5878-0.56711-1.7361-1.3479-5.5568-3.0534-18.151-3.1959-36.463-8.611-54.471-0.89818-1.8155-3.6713-6.7922-1.7744-6.5304l-1.3968 0.00387z"/>
  <path d="m376.8 465.31c18.335 3.8232 37.291 1.966 55.833 1.5074 25.347 0.12959 50.635-2.0737 75.966-2.5953 2.6897 0.40526 4.9446-0.6754 7.3864-1.6231l-0.0036-1.2388c-2.4738-0.97689-4.737-2.0898-7.473-1.6276-25.345 0.27334-50.687-1.0727-76.03-0.03614-18.521 0.20612-37.408-1.2489-55.707 2.4134l0.02841 3.2001z"/>
  <g transform="matrix(1.2292 0 0 1.2292 635.82 85.473)">
   <path d="m-197.5 339c-0.43614-0.38736 0.71822-0.25001 0.79004 1.1293 0.24576 2 0.02916 3.9447-0.35792 5.9034l-0.40911 0.02306c-0.59262-1.9203-1.0238-3.8481-0.97377-5.8772 0.03322-1.3254 1.0482-3.2032 1.3641-1.4589l-0.41333 0.28029z"/>
   <path d="m-190.55 338.19c1.5746-0.13496 1.5916 2.555 1.6882 4.7283-1.1e-4 1.1164-0.30355 2.1415-0.56311 3.1789l-0.32005 0.00784c-0.3163-0.97791-0.66033-1.951-0.83636-2.9902-0.22-1.7695-0.52357-3.4072 0.06167-3.951l-0.03036-0.97379z"/>
   <path d="m-197.08784,338.41723c-.38735.43613-.25-.71822 1.12934-.79004 2-.24576 3.94471-.02916 5.90342.35792l.02306.40911c-1.9203.59262-3.84806,1.02383-5.87719.97376-1.32543-.03321-3.20322-1.04817-1.45891-1.36408l.28028.41333z"/>
   <path d="m-197.51125,346.96482c-.13495-1.57463 2.55502-1.59163 4.72831-1.68821 1.11636.00011 2.14152.30355 3.17888.56311l.00785.32005c-.97792.3163-1.95097.66033-2.99023.83636-1.76949.21999-3.40721.52357-3.95101-.06167l-.9738.03036z"/>
  </g>
  <g transform="matrix(1.2292 0 0 1.2292 651.27 85.473)">
   <path d="m-197.5 339c-0.43614-0.38736 0.71822-0.25001 0.79004 1.1293 0.24576 2 0.02916 3.9447-0.35792 5.9034l-0.40911 0.02306c-0.59262-1.9203-1.0238-3.8481-0.97377-5.8772 0.03322-1.3254 1.0482-3.2032 1.3641-1.4589l-0.41333 0.28029z"/>
   <path d="m-190.55 338.19c1.5746-0.13496 1.5916 2.555 1.6882 4.7283-1.1e-4 1.1164-0.30355 2.1415-0.56311 3.1789l-0.32005 0.00784c-0.3163-0.97791-0.66033-1.951-0.83636-2.9902-0.22-1.7695-0.52357-3.4072 0.06167-3.951l-0.03036-0.97379z"/>
   <path d="m-197.08784,338.41723c-.38735.43613-.25-.71822 1.12934-.79004 2-.24576 3.94471-.02916 5.90342.35792l.02306.40911c-1.9203.59262-3.84806,1.02383-5.87719.97376-1.32543-.03321-3.20322-1.04817-1.45891-1.36408l.28028.41333z"/>
   <path d="m-197.51125,346.96482c-.13495-1.57463 2.55502-1.59163 4.72831-1.68821 1.11636.00011 2.14152.30355 3.17888.56311l.00785.32005c-.97792.3163-1.95097.66033-2.99023.83636-1.76949.21999-3.40721.52357-3.95101-.06167l-.9738.03036z"/>
  </g>
  <path d="m423.96 502c-0.53612-0.47615 0.88287-0.30733 0.97115 1.3882 0.3021 2.4585 0.03584 4.849-0.43997 7.2567l-0.50289 0.02834c-0.72847-2.3605-1.2585-4.7302-1.197-7.2244 0.04084-1.6293 1.2885-3.9375 1.6768-1.7934l-0.50808 0.34454z"/>
  <path d="m430.08 501.29c-2.6871 0.5361-1.7343-0.88287 7.8345-0.97116 13.874-0.30209 27.365-0.03583 40.953 0.43998l0.15997 0.50289c-5.0736 1.0871-26.702 0.73762-40.771 1.197-9.5534 0.31779-22.221-1.2884-10.121-1.6768l1.9444 0.50808z"/>
  <path d="m478.85 500.29c1.9356-0.1659 1.9565 3.1407 2.0752 5.8122-1.3e-4 1.3723-0.37313 2.6324-0.69219 3.9076l-0.39342 0.00963c-0.38881-1.2021-0.8117-2.3982-1.0281-3.6757-0.27044-2.1751-0.6436-4.1883 0.0758-4.8567l-0.03732-1.197z"/>
  <g transform="matrix(1.2292 0 0 1.2292 728.54 84.039)">
   <path d="m-197.5 339c-0.43614-0.38736 0.71822-0.25001 0.79004 1.1293 0.24576 2 0.02916 3.9447-0.35792 5.9034l-0.40911 0.02306c-0.59262-1.9203-1.0238-3.8481-0.97377-5.8772 0.03322-1.3254 1.0482-3.2032 1.3641-1.4589l-0.41333 0.28029z"/>
   <path d="m-190.55 338.19c1.5746-0.13496 1.5916 2.555 1.6882 4.7283-1.1e-4 1.1164-0.30355 2.1415-0.56311 3.1789l-0.32005 0.00784c-0.3163-0.97791-0.66033-1.951-0.83636-2.9902-0.22-1.7695-0.52357-3.4072 0.06167-3.951l-0.03036-0.97379z"/>
   <path d="m-197.08784,338.41723c-.38735.43613-.25-.71822 1.12934-.79004 2-.24576 3.94471-.02916 5.90342.35792l.02306.40911c-1.9203.59262-3.84806,1.02383-5.87719.97376-1.32543-.03321-3.20322-1.04817-1.45891-1.36408l.28028.41333z"/>
   <path d="m-197.51125,346.96482c-.13495-1.57463 2.55502-1.59163 4.72831-1.68821 1.11636.00011 2.14152.30355 3.17888.56311l.00785.32005c-.97792.3163-1.95097.66033-2.99023.83636-1.76949.21999-3.40721.52357-3.95101-.06167l-.9738.03036z"/>
  </g>
  <g transform="matrix(1.2292 0 0 1.2292 743.99 83.015)">
   <path d="m-197.5 339c-0.43614-0.38736 0.71822-0.25001 0.79004 1.1293 0.24576 2 0.02916 3.9447-0.35792 5.9034l-0.40911 0.02306c-0.59262-1.9203-1.0238-3.8481-0.97377-5.8772 0.03322-1.3254 1.0482-3.2032 1.3641-1.4589l-0.41333 0.28029z"/>
   <path d="m-190.55 338.19c1.5746-0.13496 1.5916 2.555 1.6882 4.7283-1.1e-4 1.1164-0.30355 2.1415-0.56311 3.1789l-0.32005 0.00784c-0.3163-0.97791-0.66033-1.951-0.83636-2.9902-0.22-1.7695-0.52357-3.4072 0.06167-3.951l-0.03036-0.97379z"/>
   <path d="m-197.08784,338.41723c-.38735.43613-.25-.71822 1.12934-.79004 2-.24576 3.94471-.02916 5.90342.35792l.02306.40911c-1.9203.59262-3.84806,1.02383-5.87719.97376-1.32543-.03321-3.20322-1.04817-1.45891-1.36408l.28028.41333z"/>
   <path d="m-197.51125,346.96482c-.13495-1.57463 2.55502-1.59163 4.72831-1.68821 1.11636.00011 2.14152.30355 3.17888.56311l.00785.32005c-.97792.3163-1.95097.66033-2.99023.83636-1.76949.21999-3.40721.52357-3.95101-.06167l-.9738.03036z"/>
  </g>
  <path d="m473.56 510.32c2.6938 0.50164 1.7228-0.90501-7.8463-0.8707-13.877-0.12431-27.364 0.31477-40.944 0.96463l-0.15352 0.5049c5.0872 1.022 26.709 0.39545 40.783 0.67453 9.5567 0.19536 22.203-1.573 10.098-1.8063l-1.9377 0.53294z"/>
  <path d="m515.56 462.78c3.5502-0.39617 2.1324 6.6318 1.9834 9.2815-1.2802 15.734 4.5005 30.779 5.1395 46.346l-1.2853 0.16434c-7.377-14.85-8.3379-30.5-9.5967-46.102-0.03302-3.2475-1.1116-8.5334 3.2628-10.879l0.49637 1.1898z"/>
  <path d="m390.27 525.64c-0.96924-5.2874 7.5634-5.5642 12.722-6.0521 29.774-1.7451 59.661-1.6909 89.509-1.1095 10.39 0.38637 20.799 0.75218 31.152 2.1958l0.00813 1.486c-10.32 1.2459-20.726 1.3826-31.11 1.6393-29.713 0.36199-59.451 0.37541-89.099 2.3442-4.839 0.39159-10.198 0.90685-11.887-0.59029l-1.2935 0.08654z"/>
  <g transform="matrix(1.2292 0 0 1.2292 630.9 55.934)">
   <path d="m-197.5 339c-0.43614-0.38736 0.71822-0.25001 0.79004 1.1293 0.24576 2 0.02916 3.9447-0.35792 5.9034l-0.40911 0.02306c-0.59262-1.9203-1.0238-3.8481-0.97377-5.8772 0.03322-1.3254 1.0482-3.2032 1.3641-1.4589l-0.41333 0.28029z"/>
   <path d="m-190.55 338.19c1.5746-0.13496 1.5916 2.555 1.6882 4.7283-1.1e-4 1.1164-0.30355 2.1415-0.56311 3.1789l-0.32005 0.00784c-0.3163-0.97791-0.66033-1.951-0.83636-2.9902-0.22-1.7695-0.52357-3.4072 0.06167-3.951l-0.03036-0.97379z"/>
   <path d="m-197.08784,338.41723c-.38735.43613-.25-.71822 1.12934-.79004 2-.24576 3.94471-.02916 5.90342.35792l.02306.40911c-1.9203.59262-3.84806,1.02383-5.87719.97376-1.32543-.03321-3.20322-1.04817-1.45891-1.36408l.28028.41333z"/>
   <path d="m-197.51125,346.96482c-.13495-1.57463 2.55502-1.59163 4.72831-1.68821 1.11636.00011 2.14152.30355 3.17888.56311l.00785.32005c-.97792.3163-1.95097.66033-2.99023.83636-1.76949.21999-3.40721.52357-3.95101-.06167l-.9738.03036z"/>
  </g>
  <g transform="matrix(1.2292 0 0 1.2292 646.36 55.934)">
   <path d="m-197.5 339c-0.43614-0.38736 0.71822-0.25001 0.79004 1.1293 0.24576 2 0.02916 3.9447-0.35792 5.9034l-0.40911 0.02306c-0.59262-1.9203-1.0238-3.8481-0.97377-5.8772 0.03322-1.3254 1.0482-3.2032 1.3641-1.4589l-0.41333 0.28029z"/>
   <path d="m-190.55 338.19c1.5746-0.13496 1.5916 2.555 1.6882 4.7283-1.1e-4 1.1164-0.30355 2.1415-0.56311 3.1789l-0.32005 0.00784c-0.3163-0.97791-0.66033-1.951-0.83636-2.9902-0.22-1.7695-0.52357-3.4072 0.06167-3.951l-0.03036-0.97379z"/>
   <path d="m-197.08784,338.41723c-.38735.43613-.25-.71822 1.12934-.79004 2-.24576 3.94471-.02916 5.90342.35792l.02306.40911c-1.9203.59262-3.84806,1.02383-5.87719.97376-1.32543-.03321-3.20322-1.04817-1.45891-1.36408l.28028.41333z"/>
   <path d="m-197.51125,346.96482c-.13495-1.57463 2.55502-1.59163 4.72831-1.68821 1.11636.00011 2.14152.30355 3.17888.56311l.00785.32005c-.97792.3163-1.95097.66033-2.99023.83636-1.76949.21999-3.40721.52357-3.95101-.06167l-.9738.03036z"/>
  </g>
  <g transform="matrix(1.2292 0 0 1.2292 661.81 55.755)">
   <path d="m-197.5 339c-0.43614-0.38736 0.71822-0.25001 0.79004 1.1293 0.24576 2 0.02916 3.9447-0.35792 5.9034l-0.40911 0.02306c-0.59262-1.9203-1.0238-3.8481-0.97377-5.8772 0.03322-1.3254 1.0482-3.2032 1.3641-1.4589l-0.41333 0.28029z"/>
   <path d="m-190.55 338.19c1.5746-0.13496 1.5916 2.555 1.6882 4.7283-1.1e-4 1.1164-0.30355 2.1415-0.56311 3.1789l-0.32005 0.00784c-0.3163-0.97791-0.66033-1.951-0.83636-2.9902-0.22-1.7695-0.52357-3.4072 0.06167-3.951l-0.03036-0.97379z"/>
   <path d="m-197.08784,338.41723c-.38735.43613-.25-.71822 1.12934-.79004 2-.24576 3.94471-.02916 5.90342.35792l.02306.40911c-1.9203.59262-3.84806,1.02383-5.87719.97376-1.32543-.03321-3.20322-1.04817-1.45891-1.36408l.28028.41333z"/>
   <path d="m-197.51125,346.96482c-.13495-1.57463 2.55502-1.59163 4.72831-1.68821 1.11636.00011 2.14152.30355 3.17888.56311l.00785.32005c-.97792.3163-1.95097.66033-2.99023.83636-1.76949.21999-3.40721.52357-3.95101-.06167l-.9738.03036z"/>
  </g>
  <g transform="matrix(1.2292 0 0 1.2292 677.26 55.576)">
   <path d="m-197.5 339c-0.43614-0.38736 0.71822-0.25001 0.79004 1.1293 0.24576 2 0.02916 3.9447-0.35792 5.9034l-0.40911 0.02306c-0.59262-1.9203-1.0238-3.8481-0.97377-5.8772 0.03322-1.3254 1.0482-3.2032 1.3641-1.4589l-0.41333 0.28029z"/>
   <path d="m-190.55 338.19c1.5746-0.13496 1.5916 2.555 1.6882 4.7283-1.1e-4 1.1164-0.30355 2.1415-0.56311 3.1789l-0.32005 0.00784c-0.3163-0.97791-0.66033-1.951-0.83636-2.9902-0.22-1.7695-0.52357-3.4072 0.06167-3.951l-0.03036-0.97379z"/>
   <path d="m-197.08784,338.41723c-.38735.43613-.25-.71822 1.12934-.79004 2-.24576 3.94471-.02916 5.90342.35792l.02306.40911c-1.9203.59262-3.84806,1.02383-5.87719.97376-1.32543-.03321-3.20322-1.04817-1.45891-1.36408l.28028.41333z"/>
   <path d="m-197.51125,346.96482c-.13495-1.57463 2.55502-1.59163 4.72831-1.68821 1.11636.00011 2.14152.30355 3.17888.56311l.00785.32005c-.97792.3163-1.95097.66033-2.99023.83636-1.76949.21999-3.40721.52357-3.95101-.06167l-.9738.03036z"/>
  </g>
  <g transform="matrix(1.2292 0 0 1.2292 692.72 55.397)">
   <path d="m-197.5 339c-0.43614-0.38736 0.71822-0.25001 0.79004 1.1293 0.24576 2 0.02916 3.9447-0.35792 5.9034l-0.40911 0.02306c-0.59262-1.9203-1.0238-3.8481-0.97377-5.8772 0.03322-1.3254 1.0482-3.2032 1.3641-1.4589l-0.41333 0.28029z"/>
   <path d="m-190.55 338.19c1.5746-0.13496 1.5916 2.555 1.6882 4.7283-1.1e-4 1.1164-0.30355 2.1415-0.56311 3.1789l-0.32005 0.00784c-0.3163-0.97791-0.66033-1.951-0.83636-2.9902-0.22-1.7695-0.52357-3.4072 0.06167-3.951l-0.03036-0.97379z"/>
   <path d="m-197.08784,338.41723c-.38735.43613-.25-.71822 1.12934-.79004 2-.24576 3.94471-.02916 5.90342.35792l.02306.40911c-1.9203.59262-3.84806,1.02383-5.87719.97376-1.32543-.03321-3.20322-1.04817-1.45891-1.36408l.28028.41333z"/>
   <path d="m-197.51125,346.96482c-.13495-1.57463 2.55502-1.59163 4.72831-1.68821 1.11636.00011 2.14152.30355 3.17888.56311l.00785.32005c-.97792.3163-1.95097.66033-2.99023.83636-1.76949.21999-3.40721.52357-3.95101-.06167l-.9738.03036z"/>
  </g>
  <g transform="matrix(1.2292 0 0 1.2292 708.17 55.038)">
   <path d="m-197.5 339c-0.43614-0.38736 0.71822-0.25001 0.79004 1.1293 0.24576 2 0.02916 3.9447-0.35792 5.9034l-0.40911 0.02306c-0.59262-1.9203-1.0238-3.8481-0.97377-5.8772 0.03322-1.3254 1.0482-3.2032 1.3641-1.4589l-0.41333 0.28029z"/>
   <path d="m-190.55 338.19c1.5746-0.13496 1.5916 2.555 1.6882 4.7283-1.1e-4 1.1164-0.30355 2.1415-0.56311 3.1789l-0.32005 0.00784c-0.3163-0.97791-0.66033-1.951-0.83636-2.9902-0.22-1.7695-0.52357-3.4072 0.06167-3.951l-0.03036-0.97379z"/>
   <path d="m-197.08784,338.41723c-.38735.43613-.25-.71822 1.12934-.79004 2-.24576 3.94471-.02916 5.90342.35792l.02306.40911c-1.9203.59262-3.84806,1.02383-5.87719.97376-1.32543-.03321-3.20322-1.04817-1.45891-1.36408l.28028.41333z"/>
   <path d="m-197.51125,346.96482c-.13495-1.57463 2.55502-1.59163 4.72831-1.68821 1.11636.00011 2.14152.30355 3.17888.56311l.00785.32005c-.97792.3163-1.95097.66033-2.99023.83636-1.76949.21999-3.40721.52357-3.95101-.06167l-.9738.03036z"/>
  </g>
  <g transform="matrix(1.2292 0 0 1.2292 723.62 54.5)">
   <path d="m-197.5 339c-0.43614-0.38736 0.71822-0.25001 0.79004 1.1293 0.24576 2 0.02916 3.9447-0.35792 5.9034l-0.40911 0.02306c-0.59262-1.9203-1.0238-3.8481-0.97377-5.8772 0.03322-1.3254 1.0482-3.2032 1.3641-1.4589l-0.41333 0.28029z"/>
   <path d="m-190.55 338.19c1.5746-0.13496 1.5916 2.555 1.6882 4.7283-1.1e-4 1.1164-0.30355 2.1415-0.56311 3.1789l-0.32005 0.00784c-0.3163-0.97791-0.66033-1.951-0.83636-2.9902-0.22-1.7695-0.52357-3.4072 0.06167-3.951l-0.03036-0.97379z"/>
   <path d="m-197.08784,338.41723c-.38735.43613-.25-.71822 1.12934-.79004 2-.24576 3.94471-.02916 5.90342.35792l.02306.40911c-1.9203.59262-3.84806,1.02383-5.87719.97376-1.32543-.03321-3.20322-1.04817-1.45891-1.36408l.28028.41333z"/>
   <path d="m-197.51125,346.96482c-.13495-1.57463 2.55502-1.59163 4.72831-1.68821 1.11636.00011 2.14152.30355 3.17888.56311l.00785.32005c-.97792.3163-1.95097.66033-2.99023.83636-1.76949.21999-3.40721.52357-3.95101-.06167l-.9738.03036z"/>
  </g>
  <g transform="matrix(1.2292 0 0 1.2292 739.07 53.476)">
   <path d="m-197.5 339c-0.43614-0.38736 0.71822-0.25001 0.79004 1.1293 0.24576 2 0.02916 3.9447-0.35792 5.9034l-0.40911 0.02306c-0.59262-1.9203-1.0238-3.8481-0.97377-5.8772 0.03322-1.3254 1.0482-3.2032 1.3641-1.4589l-0.41333 0.28029z"/>
   <path d="m-190.55 338.19c1.5746-0.13496 1.5916 2.555 1.6882 4.7283-1.1e-4 1.1164-0.30355 2.1415-0.56311 3.1789l-0.32005 0.00784c-0.3163-0.97791-0.66033-1.951-0.83636-2.9902-0.22-1.7695-0.52357-3.4072 0.06167-3.951l-0.03036-0.97379z"/>
   <path d="m-197.08784,338.41723c-.38735.43613-.25-.71822 1.12934-.79004 2-.24576 3.94471-.02916 5.90342.35792l.02306.40911c-1.9203.59262-3.84806,1.02383-5.87719.97376-1.32543-.03321-3.20322-1.04817-1.45891-1.36408l.28028.41333z"/>
   <path d="m-197.51125,346.96482c-.13495-1.57463 2.55502-1.59163 4.72831-1.68821 1.11636.00011 2.14152.30355 3.17888.56311l.00785.32005c-.97792.3163-1.95097.66033-2.99023.83636-1.76949.21999-3.40721.52357-3.95101-.06167l-.9738.03036z"/>
  </g>
  <g transform="matrix(1.2292 0 0 1.2292 633.36 70.685)">
   <path d="m-197.5 339c-0.43614-0.38736 0.71822-0.25001 0.79004 1.1293 0.24576 2 0.02916 3.9447-0.35792 5.9034l-0.40911 0.02306c-0.59262-1.9203-1.0238-3.8481-0.97377-5.8772 0.03322-1.3254 1.0482-3.2032 1.3641-1.4589l-0.41333 0.28029z"/>
   <path d="m-190.55 338.19c1.5746-0.13496 1.5916 2.555 1.6882 4.7283-1.1e-4 1.1164-0.30355 2.1415-0.56311 3.1789l-0.32005 0.00784c-0.3163-0.97791-0.66033-1.951-0.83636-2.9902-0.22-1.7695-0.52357-3.4072 0.06167-3.951l-0.03036-0.97379z"/>
   <path d="m-197.08784,338.41723c-.38735.43613-.25-.71822 1.12934-.79004 2-.24576 3.94471-.02916 5.90342.35792l.02306.40911c-1.9203.59262-3.84806,1.02383-5.87719.97376-1.32543-.03321-3.20322-1.04817-1.45891-1.36408l.28028.41333z"/>
   <path d="m-197.51125,346.96482c-.13495-1.57463 2.55502-1.59163 4.72831-1.68821 1.11636.00011 2.14152.30355 3.17888.56311l.00785.32005c-.97792.3163-1.95097.66033-2.99023.83636-1.76949.21999-3.40721.52357-3.95101-.06167l-.9738.03036z"/>
  </g>
  <g transform="matrix(1.2292 0 0 1.2292 648.81 70.685)">
   <path d="m-197.5 339c-0.43614-0.38736 0.71822-0.25001 0.79004 1.1293 0.24576 2 0.02916 3.9447-0.35792 5.9034l-0.40911 0.02306c-0.59262-1.9203-1.0238-3.8481-0.97377-5.8772 0.03322-1.3254 1.0482-3.2032 1.3641-1.4589l-0.41333 0.28029z"/>
   <path d="m-190.55 338.19c1.5746-0.13496 1.5916 2.555 1.6882 4.7283-1.1e-4 1.1164-0.30355 2.1415-0.56311 3.1789l-0.32005 0.00784c-0.3163-0.97791-0.66033-1.951-0.83636-2.9902-0.22-1.7695-0.52357-3.4072 0.06167-3.951l-0.03036-0.97379z"/>
   <path d="m-197.08784,338.41723c-.38735.43613-.25-.71822 1.12934-.79004 2-.24576 3.94471-.02916 5.90342.35792l.02306.40911c-1.9203.59262-3.84806,1.02383-5.87719.97376-1.32543-.03321-3.20322-1.04817-1.45891-1.36408l.28028.41333z"/>
   <path d="m-197.51125,346.96482c-.13495-1.57463 2.55502-1.59163 4.72831-1.68821 1.11636.00011 2.14152.30355 3.17888.56311l.00785.32005c-.97792.3163-1.95097.66033-2.99023.83636-1.76949.21999-3.40721.52357-3.95101-.06167l-.9738.03036z"/>
  </g>
  <g transform="matrix(1.2292 0 0 1.2292 664.27 70.506)">
   <path d="m-197.5 339c-0.43614-0.38736 0.71822-0.25001 0.79004 1.1293 0.24576 2 0.02916 3.9447-0.35792 5.9034l-0.40911 0.02306c-0.59262-1.9203-1.0238-3.8481-0.97377-5.8772 0.03322-1.3254 1.0482-3.2032 1.3641-1.4589l-0.41333 0.28029z"/>
   <path d="m-190.55 338.19c1.5746-0.13496 1.5916 2.555 1.6882 4.7283-1.1e-4 1.1164-0.30355 2.1415-0.56311 3.1789l-0.32005 0.00784c-0.3163-0.97791-0.66033-1.951-0.83636-2.9902-0.22-1.7695-0.52357-3.4072 0.06167-3.951l-0.03036-0.97379z"/>
   <path d="m-197.08784,338.41723c-.38735.43613-.25-.71822 1.12934-.79004 2-.24576 3.94471-.02916 5.90342.35792l.02306.40911c-1.9203.59262-3.84806,1.02383-5.87719.97376-1.32543-.03321-3.20322-1.04817-1.45891-1.36408l.28028.41333z"/>
   <path d="m-197.51125,346.96482c-.13495-1.57463 2.55502-1.59163 4.72831-1.68821 1.11636.00011 2.14152.30355 3.17888.56311l.00785.32005c-.97792.3163-1.95097.66033-2.99023.83636-1.76949.21999-3.40721.52357-3.95101-.06167l-.9738.03036z"/>
  </g>
  <g transform="matrix(1.2292 0 0 1.2292 679.72 70.327)">
   <path d="m-197.5 339c-0.43614-0.38736 0.71822-0.25001 0.79004 1.1293 0.24576 2 0.02916 3.9447-0.35792 5.9034l-0.40911 0.02306c-0.59262-1.9203-1.0238-3.8481-0.97377-5.8772 0.03322-1.3254 1.0482-3.2032 1.3641-1.4589l-0.41333 0.28029z"/>
   <path d="m-190.55 338.19c1.5746-0.13496 1.5916 2.555 1.6882 4.7283-1.1e-4 1.1164-0.30355 2.1415-0.56311 3.1789l-0.32005 0.00784c-0.3163-0.97791-0.66033-1.951-0.83636-2.9902-0.22-1.7695-0.52357-3.4072 0.06167-3.951l-0.03036-0.97379z"/>
   <path d="m-197.08784,338.41723c-.38735.43613-.25-.71822 1.12934-.79004 2-.24576 3.94471-.02916 5.90342.35792l.02306.40911c-1.9203.59262-3.84806,1.02383-5.87719.97376-1.32543-.03321-3.20322-1.04817-1.45891-1.36408l.28028.41333z"/>
   <path d="m-197.51125,346.96482c-.13495-1.57463 2.55502-1.59163 4.72831-1.68821 1.11636.00011 2.14152.30355 3.17888.56311l.00785.32005c-.97792.3163-1.95097.66033-2.99023.83636-1.76949.21999-3.40721.52357-3.95101-.06167l-.9738.03036z"/>
  </g>
  <g transform="matrix(1.2292 0 0 1.2292 695.17 70.147)">
   <path d="m-197.5 339c-0.43614-0.38736 0.71822-0.25001 0.79004 1.1293 0.24576 2 0.02916 3.9447-0.35792 5.9034l-0.40911 0.02306c-0.59262-1.9203-1.0238-3.8481-0.97377-5.8772 0.03322-1.3254 1.0482-3.2032 1.3641-1.4589l-0.41333 0.28029z"/>
   <path d="m-190.55 338.19c1.5746-0.13496 1.5916 2.555 1.6882 4.7283-1.1e-4 1.1164-0.30355 2.1415-0.56311 3.1789l-0.32005 0.00784c-0.3163-0.97791-0.66033-1.951-0.83636-2.9902-0.22-1.7695-0.52357-3.4072 0.06167-3.951l-0.03036-0.97379z"/>
   <path d="m-197.08784,338.41723c-.38735.43613-.25-.71822 1.12934-.79004 2-.24576 3.94471-.02916 5.90342.35792l.02306.40911c-1.9203.59262-3.84806,1.02383-5.87719.97376-1.32543-.03321-3.20322-1.04817-1.45891-1.36408l.28028.41333z"/>
   <path d="m-197.51125,346.96482c-.13495-1.57463 2.55502-1.59163 4.72831-1.68821 1.11636.00011 2.14152.30355 3.17888.56311l.00785.32005c-.97792.3163-1.95097.66033-2.99023.83636-1.76949.21999-3.40721.52357-3.95101-.06167l-.9738.03036z"/>
  </g>
  <g transform="matrix(1.2292 0 0 1.2292 710.63 69.789)">
   <path d="m-197.5 339c-0.43614-0.38736 0.71822-0.25001 0.79004 1.1293 0.24576 2 0.02916 3.9447-0.35792 5.9034l-0.40911 0.02306c-0.59262-1.9203-1.0238-3.8481-0.97377-5.8772 0.03322-1.3254 1.0482-3.2032 1.3641-1.4589l-0.41333 0.28029z"/>
   <path d="m-190.55 338.19c1.5746-0.13496 1.5916 2.555 1.6882 4.7283-1.1e-4 1.1164-0.30355 2.1415-0.56311 3.1789l-0.32005 0.00784c-0.3163-0.97791-0.66033-1.951-0.83636-2.9902-0.22-1.7695-0.52357-3.4072 0.06167-3.951l-0.03036-0.97379z"/>
   <path d="m-197.08784,338.41723c-.38735.43613-.25-.71822 1.12934-.79004 2-.24576 3.94471-.02916 5.90342.35792l.02306.40911c-1.9203.59262-3.84806,1.02383-5.87719.97376-1.32543-.03321-3.20322-1.04817-1.45891-1.36408l.28028.41333z"/>
   <path d="m-197.51125,346.96482c-.13495-1.57463 2.55502-1.59163 4.72831-1.68821 1.11636.00011 2.14152.30355 3.17888.56311l.00785.32005c-.97792.3163-1.95097.66033-2.99023.83636-1.76949.21999-3.40721.52357-3.95101-.06167l-.9738.03036z"/>
  </g>
  <g transform="matrix(1.2292 0 0 1.2292 726.08 69.251)">
   <path d="m-197.5 339c-0.43614-0.38736 0.71822-0.25001 0.79004 1.1293 0.24576 2 0.02916 3.9447-0.35792 5.9034l-0.40911 0.02306c-0.59262-1.9203-1.0238-3.8481-0.97377-5.8772 0.03322-1.3254 1.0482-3.2032 1.3641-1.4589l-0.41333 0.28029z"/>
   <path d="m-190.55 338.19c1.5746-0.13496 1.5916 2.555 1.6882 4.7283-1.1e-4 1.1164-0.30355 2.1415-0.56311 3.1789l-0.32005 0.00784c-0.3163-0.97791-0.66033-1.951-0.83636-2.9902-0.22-1.7695-0.52357-3.4072 0.06167-3.951l-0.03036-0.97379z"/>
   <path d="m-197.08784,338.41723c-.38735.43613-.25-.71822 1.12934-.79004 2-.24576 3.94471-.02916 5.90342.35792l.02306.40911c-1.9203.59262-3.84806,1.02383-5.87719.97376-1.32543-.03321-3.20322-1.04817-1.45891-1.36408l.28028.41333z"/>
   <path d="m-197.51125,346.96482c-.13495-1.57463 2.55502-1.59163 4.72831-1.68821 1.11636.00011 2.14152.30355 3.17888.56311l.00785.32005c-.97792.3163-1.95097.66033-2.99023.83636-1.76949.21999-3.40721.52357-3.95101-.06167l-.9738.03036z"/>
  </g>
  <g transform="matrix(1.2292 0 0 1.2292 741.53 68.227)">
   <path d="m-197.5 339c-0.43614-0.38736 0.71822-0.25001 0.79004 1.1293 0.24576 2 0.02916 3.9447-0.35792 5.9034l-0.40911 0.02306c-0.59262-1.9203-1.0238-3.8481-0.97377-5.8772 0.03322-1.3254 1.0482-3.2032 1.3641-1.4589l-0.41333 0.28029z"/>
   <path d="m-190.55 338.19c1.5746-0.13496 1.5916 2.555 1.6882 4.7283-1.1e-4 1.1164-0.30355 2.1415-0.56311 3.1789l-0.32005 0.00784c-0.3163-0.97791-0.66033-1.951-0.83636-2.9902-0.22-1.7695-0.52357-3.4072 0.06167-3.951l-0.03036-0.97379z"/>
   <path d="m-197.08784,338.41723c-.38735.43613-.25-.71822 1.12934-.79004 2-.24576 3.94471-.02916 5.90342.35792l.02306.40911c-1.9203.59262-3.84806,1.02383-5.87719.97376-1.32543-.03321-3.20322-1.04817-1.45891-1.36408l.28028.41333z"/>
   <path d="m-197.51125,346.96482c-.13495-1.57463 2.55502-1.59163 4.72831-1.68821 1.11636.00011 2.14152.30355 3.17888.56311l.00785.32005c-.97792.3163-1.95097.66033-2.99023.83636-1.76949.21999-3.40721.52357-3.95101-.06167l-.9738.03036z"/>
  </g>
 </g>
</svg>
