<?xml version='1.0' encoding='utf-8'?>
<svg xmlns="http://www.w3.org/2000/svg" version="1.1" id="Layer_1" x="0px" y="0px" viewBox="0 0 2676.5 1208.534" enable-background="new 0 0 2676.5 1208.534"> <g> <g> <path d="M2613.485,1061.18c-4.197-1.587-10.818-2.446-18.455-5.346c-3.151-1.197-6.474-2.743-9.871-4.831 c-2.352-1.445-4.737-3.146-7.126-5.177c-1.378-1.172-2.994-2.042-4.737-2.753c-3.589-1.465-7.727-2.243-11.52-3.492 c-1.342-0.442-2.64-0.942-3.855-1.555c-0.957-0.483-1.899-0.991-2.832-1.516c-4.85-2.729-9.432-5.933-14.263-8.689 c-2.008-1.145-4.057-2.214-6.189-3.137c-10.19-4.411-12.732-3.616-19.794-6.473c-1.078-0.436-2.262-0.957-3.595-1.595 c-2.504-1.199-5.536-2.812-9.377-5.043c-4.727-2.746-10.678-6.428-18.4-11.443c-0.853-0.554-1.675-1.077-2.482-1.584 c-0.904-0.569-1.782-1.111-2.632-1.625c-0.742-0.449-1.464-0.876-2.168-1.285c-9.131-5.31-15.135-7.417-21.077-9.135 c-3.595-1.039-7.174-1.941-11.41-3.324c-2.253-0.736-4.693-1.609-7.423-2.713c-3.055-1.236-6.476-2.764-10.401-4.711 c-5.381-2.67-11.714-6.133-19.37-10.727c-2.735-1.642-5.644-3.431-8.733-5.378c-1.442-0.908-2.92-1.848-4.445-2.827 c-0.783-0.503-1.569-1.009-2.374-1.531c-5.434-3.525-10.614-7.023-15.592-10.506c-4.472-3.13-8.777-6.248-12.921-9.361 c-0.825-0.62-1.64-1.239-2.453-1.859c-1.517-1.156-3.015-2.312-4.492-3.468c-8.669-6.786-16.658-13.574-24.157-20.447 c-4.735-4.34-9.281-8.713-13.677-13.141c-2-2.014-3.97-4.04-5.915-6.078c-3.654-3.83-7.22-7.707-10.726-11.644 c-0.229-0.257-0.456-0.515-0.683-0.772c-0.239-0.269-0.477-0.54-0.715-0.811c-8.256-9.35-16.213-19.046-24.271-29.258 c-0.065-0.082-0.13-0.164-0.194-0.246c-0.212-0.269-0.425-0.538-0.637-0.808c-7.774-9.878-15.662-20.244-24.023-31.249 c-2.319-3.052-4.673-6.151-7.072-9.305c-3.202-4.209-6.48-8.507-9.858-12.91c-2.873-3.744-5.823-7.568-8.848-11.464 c-0.632-0.814-1.269-1.632-1.908-2.453c-1.28-1.644-2.577-3.303-3.887-4.974c-2.834-3.615-5.735-7.291-8.723-11.042 c-1.739-2.183-3.511-4.395-5.307-6.626c-2.313-2.873-4.671-5.785-7.084-8.741c-2.31-2.83-4.663-5.695-7.072-8.603 c-2.796-3.376-5.658-6.804-8.596-10.29c-2.467-2.927-4.996-5.817-7.552-8.689c-2.242-2.519-4.506-5.025-6.771-7.531 c-4.791-5.304-9.577-10.613-14.159-16.056c-0.043-0.051-0.086-0.103-0.13-0.155c-0.019-0.022-0.037-0.045-0.056-0.067 c-0.057-0.067-0.113-0.135-0.17-0.203c-3.691-4.4-7.248-8.888-10.551-13.54c-0.19-0.1-0.571-0.294-0.761-0.393 c-0.145-0.313-3.844-4.753-8.111-9.507c-2.945-3.282-6.157-6.709-8.662-9.036c-1.373-1.276-2.535-2.224-3.319-2.629 c-0.017-1.011-0.017-2.013,0.026-3.011c0.894-1.158,0.808-2.735,1.65-3.928c0.018-0.428,0.048-0.847,0.095-1.257 c1.024-1.557,0.339-1.498,1.659-3.479c-0.113-3.43,0.204-2.979-0.183-4.11c-0.14-0.411-0.374-1.034-0.754-2.125 c-0.123-0.353-0.26-0.749-0.415-1.21c-0.194-0.178-0.579-0.532-0.773-0.709c-0.03-0.588-0.052-1.167-0.069-1.733 c-0.109-0.258-0.299-0.959-0.528-1.943c-0.877-3.768-2.331-11.738-2.055-15.341c-0.523-0.817-0.298-1.836-0.7-2.683 c-0.138-0.855-0.264-1.754-0.596-2.536c1.391,0.026,0.941,1.56,1.102,2.433c0.462-1.59-0.678-3.107-0.458-4.727 c-0.104,0.341-0.306,1.028-0.41,1.37l-0.536-0.406c-0.182-2.661-0.065-5.336-0.07-7.998c0.102-0.511,0.183-1.136,0.247-1.844 c0.336-3.708,0.195-9.857,0.014-15.806c-0.089-2.922-0.187-5.793-0.244-8.301c-0.012-0.534-0.022-1.053-0.03-1.551 c4.559-1.805,7.538-5.784,10.13-9.98c2.503-4.053,4.644-8.309,7.495-11.01c0.827-0.748,1.354-1.695,1.817-2.683 c0.409-0.872,0.768-1.775,1.234-2.606c1.043-5.458-0.281-6.729-1.846-9.056c-1.094-1.627-2.307-3.77-2.911-8.223 c-0.255-0.441-0.51-0.868-0.765-1.288c-0.017-0.216-0.047-0.644-0.065-0.86c-0.648-0.895-1.204-1.764-1.693-2.617 c-1.635-2.853-2.487-5.524-3.242-8.357c-0.698-2.621-1.32-5.386-2.404-8.563c-0.924-2.709-2.187-5.72-4.127-9.204 c-0.041-0.073-0.078-0.144-0.119-0.217c-0.026-0.207-0.078-0.622-0.104-0.834c-0.13-0.157-1.922-3.728-4.208-8.312 c-1.384-2.775-2.949-5.92-4.438-8.908c-2.986-5.992-5.662-11.343-5.946-11.768c-0.021-0.212-0.069-0.631-0.091-0.842 c-0.575-0.923-1.044-1.898-1.432-2.778c-0.458-1.041-0.802-1.945-1.053-2.442c-0.026-0.207-0.07-0.63-0.091-0.842 c-0.25-0.388-0.487-0.768-0.722-1.148c-0.03-0.048-0.061-0.096-0.091-0.144c-0.013-0.216-0.039-0.648-0.052-0.864 c-0.082-0.127-0.156-0.254-0.234-0.38c-0.18-0.297-0.354-0.594-0.514-0.894c-0.246-1.076-0.739-2.065-1.275-3.007 c-4.884-10.839-14.535-19.971-14.535-19.971c-0.286-0.215-0.579-0.428-0.873-0.639c-1.569-1.131-3.189-2.254-4.295-3.841 c-0.229-0.008-0.683-0.026-0.912-0.034c-0.45-0.363-0.894-0.696-1.353-1.007c-0.726-1.007-1.875-1.625-2.42-2.761 c-0.199,0.091-0.596,0.268-0.795,0.358c-0.049-0.583,0.013-1.457,0.162-2.444c0.285-1.894,0.893-4.21,1.688-5.722 c-0.277,0.121-0.834,0.367-1.111,0.488c-0.034-0.934,0.367-1.759,0.925-2.476c0.086-1.602,0.98-2.959,1.729-4.325 c-0.056-1.249,0.172-2.472,0.449-3.677c0.877-1.132,0.047-2.869,1.223-3.802c-0.199,0.052-0.596,0.16-0.795,0.212 c0.02-2.189,0.654-2.145,0.803-3.172c0.074-0.511,0.031-1.282-0.271-2.734c0.346,0.039,1.038,0.113,1.383,0.147 c0.043-0.581,0.111-1.173,0.139-1.763c0.043-0.878-0.001-1.75-0.355-2.575c-0.016-1.043-0.045-2.087-0.087-3.131 c-0.145-3.603-0.466-7.201-1.157-10.739c-0.458-1.754-0.739-3.561-0.601-5.375c-0.117-0.065-0.346-0.199-0.463-0.264 c0.104-3.137,0.133-5.329,0.13-6.905c-0.017-7.069-0.689-1.679,1.855-12.781c0.297-1.294,0.636-2.808,1.027-4.597 c0.221-0.73-0.159-1.391-0.54-1.97c-0.415-2.113-0.38-4.395,0.761-6.287c0.259,0.588,0.631,1.206,1.313,1.396 c-0.329-0.838-0.666-1.693-0.531-2.61c-0.047-0.203-0.143-0.614-0.195-0.817c0.243-1.619,0.396-3.257,0.422-4.896 c0.013-0.833,0.004-1.665-0.063-2.496c-0.017-0.964-0.298-2.039,0.329-2.882c0.381-2.033-0.56-4.507,0.737-6.243 c0.087-0.116,0.183-0.229,0.291-0.338c0.03-0.492,0.065-0.981,0.112-1.461c0.13-0.125,0.389-0.38,0.519-0.505 c-0.553-0.173-1.171-0.259-1.516-0.752c0.631-3.734,0.843-8.958,0.82-14.461c-0.016-3.665-0.136-7.454-0.309-11.008 c-0.24-4.944-0.578-9.432-0.872-12.502c-0.234-2.448-0.439-3.996-0.542-4.15c-0.112-1.862,0.069-3.733-0.229-5.583 c-0.29-1.448,0.674-2.973-0.121-4.334c-0.825-1.642-0.259-3.53-0.868-5.189c-1.499-5.796-0.866-4.361-1.037-6.404 c-0.244-0.333-0.326-0.706-0.363-1.091c-0.065-0.69,0.02-1.419-0.385-2.024c-0.052-0.424-0.086-0.839-0.104-1.253 c-0.273-0.428-0.523-0.855-0.761-1.288c-0.153-0.784-0.74-2.956-1.286-4.925c-0.541-1.948-1.041-3.699-1.043-3.713 c-0.308-0.664-1.087-2.374-1.266-3.448c-0.583-1.145-0.868-2.428-1.62-3.482c-0.013-0.216-0.047-0.653-0.06-0.868 c-0.687-1.049-1.295-1.982-1.849-2.816c-2.153-3.241-3.44-4.913-4.869-5.307c-1.012-1.141-2.528-1.555-3.621-2.584 c0.161-0.136,0.453-0.38,0.661-0.557c0.043-0.036,0.088-0.075,0.121-0.104c-6.026-4.927-2.757-7.978-4.178-11.139 c-0.059-0.592,0.016-2.293-0.834-4.299c0.011-0.325,0.008-0.648-0.002-0.97c-0.076-2.454-0.677-4.854-0.581-7.321 c0.255,0.338,0.51,0.675,0.774,1.02c-0.065-0.242-0.194-0.726-0.259-0.968l0.803-0.303c-0.29,0.082-0.868,0.25-1.158,0.333 c0-0.756-0.523-1.257-1.011-1.737c0.095-0.791,0.259-1.573,0.458-2.342c-0.118-0.394-0.203-0.794-0.274-1.196 c-0.118-0.67-0.184-1.347-0.205-2.028c-0.393-0.506-0.761-1.02-1.106-1.538c-0.19,0.493-0.38,0.985-0.562,1.477 c-0.808-0.493-0.98-1.326-0.933-2.204c0.476-0.32,0.981-0.635,1.487-0.938c-0.54-0.264-1.054-0.531-1.568-0.804 c-0.479,0.575-0.929,1.82-1.836,1.124c-0.402-0.523-1.582-1.391-0.549-1.901c-0.445-0.367-0.873-0.73-1.292-1.093 c-0.454,0.393-0.933,0.739-1.487,0.951c-0.63-0.359-1.292-0.631-1.897-1.007c-0.22-0.826-0.177-1.689-0.099-2.523 c0.885-2.512,1.091-5.182,1.591-7.788c0.184-0.958,0.405-1.908,0.717-2.837c-0.134-1.041-0.117-2.091-0.121-3.137 c0.16-0.203,0.479-0.614,0.64-0.817c0.091,0.203,0.281,0.614,0.376,0.817c0.112-0.942,0.462-1.871,0.41-2.826 c-0.112-0.426-0.254-0.846-0.387-1.267c-0.181-0.57-0.347-1.142-0.399-1.741c0.497-1.707-0.393-3.318-1.076-4.822 c-0.056-0.415-0.1-0.825-0.134-1.231c-0.237-0.387-1.379-5.799-1.231-7.825c-0.285-0.428-0.553-0.855-0.813-1.283 c-0.083-0.765-0.16-1.529-0.225-2.29c-0.544-0.605-1.106-1.179-1.694-1.728c-1.898-0.714-2.986-1.817-4.739-2.512 c-0.312-0.123-0.643-0.235-1.005-0.328c-0.77-0.198-1.669-0.318-2.785-0.314c-1.508,0.021-2.684-1.098-4.122-1.365 c-0.614-1.531-1.313-1.412-5.086-4.083c-0.147,0.095-0.441,0.293-0.588,0.389c-0.244-0.437-0.463-0.881-0.673-1.328 c-0.084-0.179-0.172-0.358-0.252-0.539c0.35,0.008,1.05,0.03,1.404,0.039c-0.678-1.301-1.797-2.48-1.503-4.07 c-1.612-2.18-0.295-2.324-3.72-4.282c-0.22-0.601-0.449-1.192-0.687-1.78c-0.073-0.04-0.143-0.081-0.215-0.122 c-0.428-0.244-0.835-0.516-1.142-0.898c0.311,0.052,0.933,0.156,1.249,0.212c-0.471-0.739-1.015-1.413-1.603-2.048l-0.778,0.626 l0.41-0.955c-0.045-0.103-4.357-6.697-4.425-6.788c-1.655-0.605-1.676-2.986-3.617-3.072c-0.651-0.802-1.21-1.728-1.911-2.491 c-0.433-0.472-0.927-0.874-1.527-1.149c-0.078-0.036-0.149-0.08-0.231-0.111c0.056-0.067,0.135-0.163,0.217-0.263 c0.121-0.147,0.25-0.304,0.332-0.402c-0.127-0.089-0.238-0.195-0.356-0.292c-1.801-1.478-2.672-3.828-4.561-5.247 c0.242-0.074,0.722-0.225,0.964-0.303c-2.481-1.649-0.294-2.537-9.273-6.857c-0.726-0.363-1.443-0.73-2.135-1.137 c-0.207-0.026-0.626-0.078-0.838-0.104c-0.089-0.055-0.193-0.102-0.288-0.154c-2.305-1.243-6.383-1.522-9.492-2.148 c-1.307-0.263-2.446-0.586-3.199-1.073c-0.583-0.026-1.153-0.043-1.711-0.06c-0.596-0.281-1.197-0.549-1.78-0.829 c-0.082,0.078-0.255,0.233-0.337,0.311c-0.981-0.35-2.052-0.229-3.02-0.557c-1.026-0.6-1.99-1.299-3.047-1.841 c-0.016-0.008-0.031-0.018-0.047-0.026c-0.207-0.03-0.627-0.086-0.834-0.116c-4.367-1.946-8.721-2.864-12.843-3.195 c-9.462-0.762-17.692,1.579-21.996,1.773c-1.296-0.319-2.584,0.013-3.863,0.173c-0.263,0.005-0.595,0.005-0.981,0.001 c-1.085-0.013-2.623-0.065-4.417-0.145c-1.026-0.046-2.135-0.101-3.295-0.163c-7.997-0.432-18.315-1.221-19.224-1.775 c-1.963-0.205-3.964,0.19-5.895-0.271c-0.024-0.006-0.048-0.008-0.072-0.014c-0.942-0.237-1.923-0.185-2.873-0.203 c-0.134,0.082-0.406,0.25-0.54,0.332c-0.834-0.467-1.927-0.544-2.713,0.039c-0.39-0.021-1.698,0.051-3.653,0.215 c-3.558,0.299-9.262,0.902-15.499,1.799c-7.183,1.033-15.07,2.456-21.192,4.252c-1.166,0.342-2.27,0.697-3.291,1.066 c-0.216,0.026-0.649,0.073-0.864,0.099c-0.195,0.194-0.579,0.588-0.774,0.782c-0.649,0.117-5.192,1.054-6.516,1.478 c-1.623,0.563-2.717,1.035-3.526,1.417c-1.689,0.797-2.116,1.191-3.4,1.137c-1.063,0.661-2.29,0.938-3.469,1.296 c-1.883,1.087-4.249,2.235-6.459,2.558c-1.011,0.553-2.074,1.011-3.037,1.638c-0.212,0.021-0.63,0.065-0.843,0.091 c-0.479,0.223-0.956,0.452-1.426,0.695c-0.558,0.288-1.105,0.596-1.629,0.943c-0.217,0.017-0.644,0.052-0.86,0.069 c-0.877,0.544-1.733,1.106-2.58,1.676c-0.216,0.018-0.649,0.047-0.865,0.065c-0.645,0.402-1.766,0.992-3.143,1.695 c-4.961,2.535-13.244,6.554-14.564,8.679c-0.164-0.13-0.488-0.393-0.648-0.527c-0.98,0.069-2.061-0.013-2.869,0.643 c-0.6,0.452-1.259,0.863-1.832,1.355c-0.455,0.391-0.858,0.833-1.124,1.398c-1.437,0.257-6.26,2.939-7.311,5.202 c-0.185,0.047-0.392,0.116-0.608,0.195c-1.959,0.716-5.016,2.6-5.929,3.326c-0.217,0.017-0.64,0.047-0.852,0.06 c-0.523,0.467-1.098,0.855-1.728,1.141c-1.444,0.596-2.083,2.191-3.466,2.847c-3.443,1.89-2.195,1.566-3.443,2.781 c-0.506,0.493-1.426,1.24-3.235,2.49c-0.177,0.122-0.36,0.248-0.555,0.38c0.134,0.151,0.402,0.454,0.536,0.605 c-0.406,0.026-1.223,0.078-1.629,0.099c0.095,0.246,0.285,0.739,0.38,0.985c-0.168-0.156-0.509-0.467-0.682-0.622 c-0.409,0.228-0.915,0.487-1.227,0.822c-0.321,0.344-0.438,0.768-0.035,1.321c-4.131,1.481-2.755,2.551-4.779,3.707 c-1.468,0.581-3.213,1.514-3.923,1.962c-0.467,0.013-0.929,0.026-1.383,0.039c-0.376,1.556-1.698,3.059-3.375,3.098 c-2.505,1.398-4.454,2.598-5.963,3.59c-2.635,1.732-3.917,2.828-4.39,3.206c-2.819,0.288-3.398,2.258-5.613,3.357 c-0.717,0.088-2.28,0.92-3.756,1.812c-1.366,0.825-2.658,1.701-3.136,2.09c-1.646,0.411-3.082,1.208-4.437,2.145 c-1.594,1.102-3.077,2.398-4.658,3.503c-1.608,0.126-2.635,1.754-4.347,1.435c-0.843,0.363-1.664,0.937-1.586,1.97 c-0.819,0.307-1.627,0.672-2.387,1.113c-0.727,0.422-1.411,0.914-2.016,1.501c-0.951,0.246-1.59,0.998-2.169,1.728 c-0.104-0.065-0.311-0.203-0.415-0.272c-0.544,0.371-1.197,0.389-1.811,0.462c-0.527,0.562-1.085,1.093-1.668,1.586 c-0.245,0.008-1.341,0.527-2.721,1.233l-2.697,9.169l29.161,29.161v27.865l2.592,35.641l-29.809-27.217v20.737l2.592,31.753 l-0.648,33.697l5.832,29.161l16.201-23.977l10.368,19.441l1.296,25.273l-7.776,30.457l3.888,31.105l-2.592,33.697l-25.921-22.033 l-9.072,18.145l28.513,27.865l5.184,36.289l-2.592,20.089l3.888,31.105l-28.513,27.217l33.697-0.648l-27.865,29.161l19.441,4.536 l-22.681,34.345l25.273,3.888l8.424,26.569h-34.345l20.089,22.033l-26.569,36.289l12.313,27.217l22.033,25.921l0.648,36.937 l3.24,23.329l0.648,28.513l-33.049-26.569l5.832,34.345l-1.944,14.905l-12.96,38.234l4.536,20.737l37.585-26.569l0.648,26.569 l-5.184,41.474l5.832,25.921l-42.77,1.296l0.648,31.753l24.721-5.541c2.806-1.751,4.742-3.219,6.59-4.095 c0.806-0.382,1.592-0.775,2.362-1.175c1.713-0.892,3.328-1.832,4.869-2.805c5.282-3.336,9.592-7.102,13.17-11.013 c3.557-3.888,6.399-7.914,8.763-11.793c1.073-1.761,2.046-3.488,2.947-5.16c1.727-3.205,3.183-6.195,4.524-8.786 c0.533-1.029,1.049-2.001,1.557-2.892c1.823-3.199,4.313-6.806,7.315-10.717c2.667-3.474,5.739-7.189,9.132-11.087 c1.602-1.84,3.278-3.723,5.01-5.636c4.306-4.757,8.98-9.716,13.876-14.778c1.382-1.429,2.781-2.866,4.194-4.308 c3.071-3.135,6.206-6.296,9.372-9.461c3.851-3.849,7.746-7.702,11.62-11.516c2.135-2.101,4.262-4.189,6.375-6.26 c4.764-4.67,9.441-9.241,13.91-13.631c4.561-4.481,8.904-8.773,12.898-12.788c2.268-2.28,4.418-4.466,6.437-6.551 c7.382-7.622,12.934-13.827,15.491-17.829c0.138-0.216,0.279-0.434,0.399-0.637c0.126-0.013,0.372-0.039,0.497-0.052 c0.077-0.13,0.844-1.179,2.015-2.773c0.634-0.863,1.384-1.883,2.216-3.016c2.489-3.387,5.666-7.721,8.394-11.512 c3.071-4.27,5.569-7.849,5.847-8.586c0.134-0.008,0.41-0.026,0.544-0.034c0.64-1.067,1.35-2.095,2.04-3.134 c0.624-0.939,1.232-1.886,1.753-2.885c0.138-0.005,0.419-0.013,0.557-0.018c0.034-0.088,1.305-2.136,3.489-5.611 c3.221-5.127,8.431-13.365,14.602-23.033c2.24-3.509,4.606-7.207,7.049-11.012c1.651-2.572,3.337-5.192,5.044-7.837 c0.951-1.474,1.907-2.955,2.868-4.439c4.531-7.001,9.14-14.073,13.553-20.764c4.27-6.475,8.355-12.592,12.006-17.945 c1.024-1.501,2.014-2.943,2.964-4.315c5.173-7.468,9.166-12.879,11.091-14.78c0.346-0.342,0.628-0.574,0.835-0.68 c0.25,0.852,0.474,1.709,0.69,2.567c1.124,4.467,1.907,9.008,3.458,13.42c0.201,0.573,0.416,1.13,0.621,1.699 c1.137,3.158,2.317,6.265,3.556,9.299c2.963,7.257,6.213,14.16,9.702,20.739c0.225,0.424,0.456,0.84,0.682,1.261 c7.3,13.559,15.623,25.721,24.623,36.644c1.877,2.279,3.787,4.497,5.719,6.67c5.793,6.516,11.813,12.574,17.981,18.202 c0.209,0.19,0.42,0.374,0.629,0.564c0.105,0.095,0.211,0.188,0.316,0.283c0.113,0.102,0.226,0.202,0.339,0.304 c9.448,8.505,19.212,16.035,28.983,22.744c1.382,0.949,2.764,1.883,4.145,2.799c5.383,3.571,10.752,6.903,16.057,10.016 c4.998,2.932,9.935,5.671,14.772,8.241c5.09,2.705,10.068,5.225,14.881,7.578c4.866,2.38,9.561,4.592,14.037,6.665 c1.371,0.635,2.721,1.257,4.048,1.867c9.521,4.37,17.89,8.104,24.554,11.48c2.297,1.163,4.403,2.287,6.27,3.377 c0.211,0.026,0.635,0.078,0.843,0.104c1.009,0.578,5.142,2.423,11.182,5.162c1.931,0.876,4.06,1.844,6.342,2.89 c1.631,0.748,3.341,1.536,5.117,2.361c4.747,2.204,9.955,4.666,15.356,7.302c3.105,1.516,6.271,3.087,9.448,4.702 c2.372,1.206,4.749,2.435,7.11,3.68c5.076,2.676,10.076,5.428,14.785,8.189c3.573,2.095,6.973,4.195,10.114,6.273 c2.231,1.476,4.328,2.939,6.26,4.38c5.097,3.803,9.041,7.453,11.193,10.756c0.545,0.837,0.961,1.708,1.304,2.602 c0.933,2.427,1.319,5.023,2.208,7.568c0.315,0.901,0.616,1.786,0.907,2.66c3.492,10.464,5.396,19.069,6.802,27.027 c0.254,1.438,0.493,2.856,0.721,4.259c0.3,1.846,0.585,3.67,0.865,5.484c0.984,6.359,1.944,12.623,3.502,19.483 c0.882,3.882,1.952,7.952,3.335,12.345c0.003,0.008,0.005,0.016,0.008,0.025c1.354,2.118,3.21,3.902,5.425,5.408 c4.21,2.863,9.724,4.711,15.598,5.887c6.713,1.344,13.895,1.811,20.131,1.916c1.052,0.018,2.075,0.025,3.067,0.024 c2.048-0.001,3.951-0.036,5.652-0.082c2.674-0.073,4.848-0.174,6.282-0.221c7.917-0.255,15.059-0.362,21.54-0.377 c7.477-0.017,14.073,0.089,19.97,0.232c2.753,0.067,5.352,0.142,7.817,0.217c10.248,0.311,18.169,0.611,25.058,0.284 c1.238-0.059,2.448-0.136,3.627-0.239c2.052-0.457,3.972-0.861,5.786-1.222c9.691-1.927,16.148-2.54,21.25-2.515 c1.832,0.009,3.493,0.099,5.063,0.24c7.101,0.641,12.426,2.313,24.031,2.113c2.656-0.046,5.635-0.188,9.045-0.465 c0.231-0.019,0.472-0.037,0.719-0.055c2.54-0.185,5.901-0.327,9.729-0.437c5.688-0.163,12.406-0.252,18.989-0.298 c4.651-0.032,9.232-0.042,13.337-0.041c8.865,0.003,15.498,0.061,15.748,0.069c1.339-0.068,2.171-0.201,2.717-0.444 c1.406-0.625,0.913-1.977,2.286-4.796c0.787-1.616-0.049-1.851-0.507-2.499c-1.217-1.72,0.859-2.842,4.319-0.871 c1.943,0.768,5.673,2.017,8.057,2.249c0.394,0.038,0.754,0.052,1.06,0.028c1.43-0.536,2.375-2.733,3.06-4.008 c0.824-1.533,1.366-3.016,1.75-4.385c1.527-5.432,0.56-9.042,4.653-6.631c0.497,0.293,1.064,0.669,1.723,1.147 c0.287,0.208,0.587,0.409,0.893,0.608c1.489,0.965,3.185,1.817,4.967,2.561c7.377,3.082,16.175,4.318,17.354,4.063 c0.109-0.024,0.208-0.053,0.304-0.083c1.791-0.572,1.282-2.32,0.671-4.176c-0.582-1.766-1.252-3.629-0.11-4.662 c0.302-0.273,0.621-0.453,0.951-0.567c3.501-1.211,8.401,5.537,10.12,0.316c0.321-0.974,0.731-1.928,1.167-2.878 c1.214-2.653,2.622-5.273,2.811-8.185c0.078-1.206-1.407-2.55-3.691-3.868c-1.943-1.121-4.463-2.221-7.102-3.202 c-5.516-2.049-11.534-3.572-13.803-3.635c-3-0.084-7.024-1.613-9.194-4.159c-0.479-0.562-0.867-1.173-1.134-1.83 c-0.073-0.18-0.146-0.36-0.2-0.547c0.142-0.004,0.292,0.01,0.438,0.015c1.712,0.052,3.692,0.634,5.448,1.303 c0.699,0.266,1.364,0.543,1.955,0.803c2.848,1.251,6.009,1.917,8.939,3.111c3.29,1.34,5.91,2.089,8.042,2.425 c6.944,1.093,8.64-2.26,10.872-4.353c1.718-1.611,4.449-2.959,6.22-4.846c0.574-0.612,1.049-1.28,1.353-2.033 C2619.651,1065.357,2617.925,1062.859,2613.485,1061.18z"/> <polygon points="1686.37,1053.794 1722.659,1053.794 1689.61,1012.321 "/> <polygon points="1691.554,845.13 1694.146,874.291 1722.659,841.89 "/> <polygon points="1693.498,400.584 1727.843,398.64 1699.978,377.904 "/> <polygon points="1685.722,529.542 1688.314,551.574 1720.067,554.167 "/> <polygon points="1694.146,874.291 1694.146,904.1 1723.307,878.827 "/> <polygon points="1688.962,604.713 1721.363,605.361 1690.258,584.624 "/> <polygon points="1688.314,551.574 1690.258,584.624 1717.475,574.255 "/> </g> <polygon points="1669.521,1023.337 1686.37,1053.794 1689.61,1012.321 "/> <polygon points="1692.202,262.555 1685.722,224.321 1666.929,252.835 "/> <polygon points="1668.873,895.028 1694.146,904.1 1694.146,874.291 "/> <polygon points="1695.442,471.867 1685.074,430.394 1657.209,459.555 "/> <polygon points="1685.074,991.584 1698.034,953.35 1665.633,957.886 "/> <polygon points="1692.85,632.578 1664.985,663.035 1698.682,661.091 "/> <polygon points="1698.682,661.091 1664.985,663.035 1663.041,692.196 "/> <polygon points="1661.097,926.781 1699.978,938.446 1694.146,904.1 "/> <polygon points="1699.978,377.904 1670.169,380.496 1693.498,400.584 "/> <polygon points="1700.626,815.969 1688.314,788.752 1664.985,810.785 "/> <polygon points="1691.554,845.13 1700.626,815.969 1666.929,839.946 "/> <polygon points="1666.929,839.946 1700.626,815.969 1664.985,810.785 "/> <polygon points="1698.034,953.35 1699.978,938.446 1665.633,957.886 "/> <polygon points="1688.962,604.713 1667.577,616.377 1692.85,632.578 "/> <polygon points="1694.794,315.045 1663.041,287.828 1664.985,316.989 "/> <polygon points="1667.577,783.568 1690.258,749.87 1659.153,757.647 "/> <polygon points="1693.498,400.584 1661.097,400.584 1685.074,430.394 "/> <path d="M1692.955,187.935c-2.849,1.458-6.919,3.72-7.277,3.969c-0.207,0.026-0.622,0.078-0.829,0.104 c-0.092,0.051-0.184,0.101-0.276,0.152l5.686,4.944L1692.955,187.935z"/> <polygon points="1665.633,989.64 1685.074,991.584 1665.633,957.886 "/> <polygon points="1661.097,926.781 1694.146,904.1 1668.873,895.028 "/> <polygon points="1690.258,749.87 1694.794,730.43 1661.745,725.245 "/> <polygon points="1695.442,471.867 1664.985,491.308 1686.37,490.012 "/> <polygon points="1657.209,459.555 1664.985,491.308 1695.442,471.867 "/> <path d="M1690.258,197.104l-28.116,6.873c-0.186,0.218-0.329,0.472-0.434,0.753l24.015,19.591L1690.258,197.104z"/> <polygon points="1692.202,283.292 1692.202,262.555 1663.041,287.828 "/> <polygon points="1668.873,895.028 1694.146,874.291 1663.041,871.699 "/> <polygon points="1685.074,430.394 1661.097,400.584 1664.337,431.042 "/> <polygon points="1661.097,1052.498 1686.37,1053.794 1669.521,1023.337 "/> <polygon points="1659.153,757.647 1690.258,749.87 1661.745,725.245 "/> <polygon points="1665.633,989.64 1689.61,1012.321 1685.074,991.584 "/> <polygon points="1668.225,1082.307 1686.37,1053.794 1661.097,1052.498 "/> <path d="M1668.225,1104.988l-2.805,15.424c5.586-0.659,10.523-1.425,14.891-2.263l6.058-5.385L1668.225,1104.988z"/> <polygon points="1640.36,577.495 1637.768,613.785 1660.449,574.903 "/> <polygon points="1664.985,663.035 1639.064,672.755 1663.041,692.196 "/> <polygon points="1665.633,633.874 1637.12,633.874 1664.985,663.035 "/> <polygon points="1641.008,847.074 1663.041,871.699 1666.929,839.946 "/> <polygon points="1664.985,810.785 1667.577,783.568 1638.416,788.752 "/> <path d="M1629.992,1101.1l21.058,20.646c5.221-0.367,9.997-0.817,14.371-1.333l2.805-15.424L1629.992,1101.1z"/> <polygon points="1629.344,1074.531 1668.225,1082.307 1661.097,1052.498 "/> <polygon points="1629.992,1101.1 1668.225,1104.988 1668.225,1082.307 "/> <polygon points="1641.008,900.86 1668.873,895.028 1663.041,871.699 "/> <polygon points="1641.008,900.86 1661.097,926.781 1668.873,895.028 "/> <polygon points="1661.097,1052.498 1669.521,1023.337 1637.12,1047.314 "/> <polygon points="1631.936,1013.617 1669.521,1023.337 1641.008,994.176 "/> <polygon points="1667.577,340.966 1641.656,343.558 1670.169,380.496 "/> <polygon points="1641.656,343.558 1631.288,377.904 1670.169,380.496 "/> <polygon points="1663.041,287.828 1642.304,253.483 1634.528,285.884 "/> <polygon points="1638.416,788.752 1667.577,783.568 1659.153,757.647 "/> <polygon points="1637.12,1047.314 1669.521,1023.337 1631.936,1013.617 "/> <polygon points="1664.985,491.308 1627.399,501.028 1657.857,523.061 "/> <polygon points="1641.008,994.176 1665.633,989.64 1639.064,964.367 "/> <polygon points="1667.577,616.377 1637.768,613.785 1665.633,633.874 "/> <polygon points="1664.337,431.042 1636.472,432.338 1657.209,459.555 "/> <polygon points="1633.232,808.841 1664.985,810.785 1638.416,788.752 "/> <polygon points="1637.12,1047.314 1629.344,1074.531 1661.097,1052.498 "/> <polygon points="1641.008,930.669 1661.097,926.781 1641.008,900.86 "/> <polygon points="1657.857,523.061 1639.712,530.19 1656.561,546.39 "/> <polygon points="1635.824,545.094 1640.36,577.495 1656.561,546.39 "/> <path d="M1660.541,204.881c-2.558,0.035-4.548,0.775-5.948,0.991c-0.605,0.29-1.197,0.588-1.776,0.907 c-0.299,0.398-0.649,0.739-1.163,0.769c-1.123-0.916-2.683-0.48-3.975-0.268c-1.153,0.389-2.488-0.181-3.508,0.614 c-1.288,0.043-2.635,0.251-3.858-0.229c-0.583-0.173-1.154-0.605-1.767-0.523c-0.194,0.238-0.587,0.708-0.786,0.946 c-1.547-0.467-3.197-1.746-4.788-0.64c-0.445,0.031-0.886,0.056-1.318,0.082c-0.186-0.203-0.557-0.61-0.743-0.813 c-0.558-0.122-1.111-0.254-1.664-0.38l0.18,1.155c0.428,0.236,0.88,0.459,1.164,0.833c-0.005,0.544-0.018,1.093-0.039,1.642 c-0.26-0.097-0.521-0.194-0.783-0.29l4.11,26.306L1660.541,204.881z"/> <polygon points="1663.041,692.196 1639.064,672.755 1636.472,704.508 "/> <path d="M1611.847,1110.172l9.287,12.664c2.849-0.026,6.224-0.084,10.264-0.183c0.142-0.004,0.278-0.008,0.419-0.012l-1.826-21.542 L1611.847,1110.172z"/> <path d="M1628.323,206.136c0.037,0.72,0.549,1.051,1.105,1.358l-0.18-1.155C1628.94,206.269,1628.632,206.197,1628.323,206.136z"/> <path d="M1633.88,235.986l-4.11-26.306c-2.028-0.742-4.113-1.408-6.294-1.335c-0.381-0.19-1.024-0.521-1.327-0.906l-11.597,28.547 H1633.88z"/> <polygon points="1639.064,672.755 1637.12,633.874 1612.495,667.571 "/> <polygon points="1640.36,577.495 1602.126,573.607 1637.768,613.785 "/> <polygon points="1598.886,993.528 1641.008,994.176 1639.064,964.367 "/> <polygon points="1607.311,928.077 1641.008,900.86 1607.311,901.508 "/> <polygon points="1641.008,406.417 1604.071,406.417 1636.472,432.338 "/> <polygon points="1641.008,406.417 1631.288,377.904 1604.071,406.417 "/> <polygon points="1638.416,325.413 1604.071,346.15 1641.656,343.558 "/> <polygon points="1642.304,253.483 1609.903,267.091 1634.528,285.884 "/> <polygon points="1633.88,235.986 1610.551,235.986 1609.903,267.091 "/> <polygon points="1610.551,784.864 1638.416,788.752 1627.399,762.831 "/> <polygon points="1609.903,467.331 1602.774,486.124 1627.399,501.028 "/> <polygon points="1598.886,993.528 1639.064,964.367 1602.126,954.646 "/> <polygon points="1631.936,1013.617 1641.008,994.176 1598.886,993.528 "/> <polygon points="1602.126,1051.202 1629.344,1074.531 1637.12,1047.314 "/> <polygon points="1637.768,613.785 1600.83,614.433 1637.12,633.874 "/> <polygon points="1633.232,808.841 1638.416,788.752 1610.551,784.864 "/> <polygon points="1639.712,530.19 1605.367,546.39 1635.824,545.094 "/> <polygon points="1600.182,520.469 1605.367,546.39 1639.712,530.19 "/> <polygon points="1609.903,267.091 1611.199,283.94 1634.528,285.884 "/> <polygon points="1602.126,1051.202 1637.12,1047.314 1604.719,1022.689 "/> <polygon points="1638.416,325.413 1610.551,312.453 1604.071,346.15 "/> <polygon points="1636.472,704.508 1610.551,700.62 1629.344,727.837 "/> <polygon points="1631.936,462.147 1600.83,438.17 1609.903,467.331 "/> <polygon points="1603.422,1075.827 1629.992,1101.1 1629.344,1074.531 "/> <polygon points="1631.288,377.904 1604.071,346.15 1603.422,383.736 "/> <polygon points="1610.551,821.801 1633.232,808.841 1610.551,784.864 "/> <polygon points="1603.422,1075.827 1629.344,1074.531 1602.126,1051.202 "/> <polygon points="1604.719,1022.689 1631.936,1013.617 1598.886,993.528 "/> <polygon points="1600.83,725.245 1612.495,753.11 1629.344,727.837 "/> <polygon points="1612.495,753.11 1610.551,784.864 1627.399,762.831 "/> <polygon points="1627.399,501.028 1602.774,486.124 1600.182,520.469 "/> <polygon points="1602.126,573.607 1580.742,582.68 1600.83,614.433 "/> <polygon points="1602.774,637.114 1579.446,646.834 1579.446,661.739 "/> <polygon points="1610.551,784.864 1578.797,810.785 1610.551,821.801 "/> <path d="M1610.551,235.986l-21.895-8.656c0.034,0.212,0.068,0.426,0.09,0.567c-0.916-0.449-1.932-0.674-2.904-0.281 c-0.575-0.853-1.61-1.615-3.329-2.008l-10.844,40.186L1610.551,235.986z"/> <polygon points="1611.199,283.94 1582.038,291.716 1610.551,312.453 "/> <path d="M1578.797,1106.284l-3.607,15.084c9.357-0.181,15.303-0.163,19.364-0.04l17.292-11.156L1578.797,1106.284z"/> <polygon points="1600.83,725.245 1577.501,762.183 1612.495,753.11 "/> <polygon points="1612.495,667.571 1578.15,701.268 1610.551,700.62 "/> <polygon points="1602.774,637.114 1579.446,661.739 1612.495,667.571 "/> <path d="M1594.555,1121.329c9.736,0.297,8.657,1.203,17.818,1.457l-0.526-12.613L1594.555,1121.329z"/> <polygon points="1607.311,928.077 1607.311,901.508 1583.982,930.021 "/> <polygon points="1600.83,438.17 1580.094,471.867 1609.903,467.331 "/> <polygon points="1604.071,406.417 1578.15,431.042 1600.83,438.17 "/> <path d="M1595.377,209.59c-0.713-0.518-1.426-1.188-2.35-1.244c-0.484,1.408,1.137,2.161,2.173,2.61 c0.115,0.036,0.221,0.084,0.328,0.131l1.041-1.126C1596.174,209.827,1595.778,209.698,1595.377,209.59z"/> <polygon points="1583.982,930.021 1602.126,954.646 1607.311,928.077 "/> <polygon points="1610.551,700.62 1578.15,701.268 1600.83,725.245 "/> <polygon points="1570.373,982.511 1598.886,993.528 1581.39,954.646 "/> <polygon points="1602.774,486.124 1571.669,498.436 1600.182,520.469 "/> <path d="M1601.175,198.226c-0.039,0.372-0.007,0.735,0.055,1.094l0.927-0.046C1601.864,198.89,1601.547,198.531,1601.175,198.226z"/> <polygon points="1583.982,930.021 1607.311,901.508 1579.446,900.86 "/> <polygon points="1609.903,467.331 1580.094,471.867 1602.774,486.124 "/> <polygon points="1571.669,265.795 1582.038,291.716 1609.903,267.091 "/> <polygon points="1578.797,810.785 1598.238,845.13 1610.551,821.801 "/> <polygon points="1577.501,1022.689 1602.126,1051.202 1604.719,1022.689 "/> <polygon points="1580.094,1052.498 1602.126,1051.202 1577.501,1022.689 "/> <polygon points="1577.501,1022.689 1604.719,1022.689 1598.886,993.528 "/> <polygon points="1582.686,1069.347 1578.797,1106.284 1603.422,1075.827 "/> <polygon points="1578.797,810.785 1569.725,838.65 1598.238,845.13 "/> <polygon points="1578.15,701.268 1578.797,724.597 1600.83,725.245 "/> <polygon points="1581.39,954.646 1602.126,954.646 1583.982,930.021 "/> <polygon points="1598.238,845.13 1570.373,874.939 1602.774,873.643 "/> <polygon points="1580.094,1052.498 1582.686,1069.347 1602.126,1051.202 "/> <polygon points="1600.83,614.433 1579.446,646.834 1602.774,637.114 "/> <polygon points="1600.83,614.433 1578.797,606.009 1579.446,646.834 "/> <polygon points="1579.446,547.686 1580.742,582.68 1602.126,573.607 "/> <polygon points="1602.774,486.124 1580.094,471.867 1571.669,498.436 "/> <polygon points="1570.373,982.511 1577.501,1022.689 1598.886,993.528 "/> <polygon points="1569.725,838.65 1553.525,868.459 1570.373,874.939 "/> <polygon points="1574.261,344.854 1548.988,373.367 1574.261,383.736 "/> <polygon points="1549.636,1022.689 1577.501,1022.689 1570.373,982.511 "/> <polygon points="1549.636,1022.689 1544.452,1047.314 1577.501,1022.689 "/> <polygon points="1552.876,431.042 1545.1,460.851 1578.15,431.042 "/> <polygon points="1541.86,1104.988 1578.797,1106.284 1540.564,1071.939 "/> <polygon points="1578.797,606.009 1550.932,613.785 1579.446,646.834 "/> <polygon points="1550.932,613.785 1543.804,637.762 1579.446,646.834 "/> <polygon points="1547.044,552.222 1547.044,574.903 1579.446,547.686 "/> <polygon points="1544.452,1047.314 1580.094,1052.498 1577.501,1022.689 "/> <polygon points="1578.15,431.042 1545.1,460.851 1580.094,471.867 "/> <polygon points="1582.038,291.716 1543.804,291.716 1577.501,317.637 "/> <path d="M1576.898,219.243c-0.182-0.078-0.549-0.225-0.73-0.303c0.052,0.093,0.106,0.187,0.158,0.281l1.115,1.008 C1577.249,219.907,1577.066,219.579,1576.898,219.243z"/> <polygon points="1579.446,900.86 1548.988,926.781 1583.982,930.021 "/> <polygon points="1578.797,606.009 1547.044,574.903 1550.932,613.785 "/> <polygon points="1580.742,582.68 1547.044,574.903 1578.797,606.009 "/> <polygon points="1540.564,1071.939 1582.686,1069.347 1580.094,1052.498 "/> <path d="M1577.441,220.229l-1.115-1.008c0.218,0.392,0.436,0.785,0.663,1.175c-0.186,0.099-0.553,0.289-0.739,0.384 c0.299,0.748,0.597,1.503,0.877,2.264c-0.294,0.004-0.882,0.017-1.176,0.021c-2.039-1.218-3.452-3.241-5.535-4.407 c0.829,1.879,2.653,2.998,3.91,4.558c0.704,0.903,1.383,1.823,2.074,2.739c0.335,0.176,0.67,0.354,1.005,0.533l4.446-1.28 C1580.124,223.805,1578.581,222.142,1577.441,220.229z"/> <path d="M1572.539,227.335c-1.115-0.237-1.763,1.037-2.856,0.67c0.381,0.063,0.611,0.246,0.763,0.488l2.491-0.717 C1572.805,227.628,1572.667,227.486,1572.539,227.335z"/> <polygon points="1577.501,762.183 1545.1,788.104 1574.909,791.992 "/> <polygon points="1577.501,317.637 1543.804,291.716 1545.1,318.285 "/> <polygon points="1546.396,819.857 1569.725,838.65 1578.797,810.785 "/> <polygon points="1544.452,1047.314 1540.564,1071.939 1580.094,1052.498 "/> <polygon points="1544.452,966.311 1581.39,954.646 1548.988,926.781 "/> <path d="M1561.387,257.722c0.492,0.378,1.044,0.387,1.596,0.273l-1.655-1.487C1561.061,256.954,1560.813,257.454,1561.387,257.722z "/> <path d="M1557.857,254.659c0.445,0.156,0.89,0.315,1.344,0.475c0.173,0.19,0.514,0.566,0.687,0.756 c0.273,0.023,0.551,0.046,0.827,0.069l-2.418-2.171C1558.213,254.095,1558.071,254.388,1557.857,254.659z"/> <polygon points="1545.748,351.335 1548.988,373.367 1574.261,344.854 "/> <polygon points="1577.501,317.637 1545.1,318.285 1574.261,344.854 "/> <polygon points="1541.212,729.781 1549.636,749.222 1578.797,724.597 "/> <polygon points="1570.373,874.939 1539.916,904.748 1579.446,900.86 "/> <polygon points="1579.446,646.834 1543.804,637.762 1553.525,663.683 "/> <polygon points="1571.021,528.245 1547.044,552.222 1579.446,547.686 "/> <polygon points="1574.261,383.736 1549.636,409.657 1577.501,403.177 "/> <polygon points="1551.58,983.807 1570.373,982.511 1544.452,966.311 "/> <polygon points="1553.525,868.459 1539.916,904.748 1570.373,874.939 "/> <polygon points="1548.988,373.367 1549.636,409.657 1574.261,383.736 "/> <polygon points="1545.1,318.285 1516.587,342.262 1545.748,351.335 "/> <path d="M1517.62,1123.068c4.329,0.035,8.665-0.022,13.001-0.136l-12.737-11.464L1517.62,1123.068z"/> <polygon points="1513.347,585.92 1518.531,613.785 1550.932,613.785 "/> <polygon points="1523.715,989.64 1522.419,1011.025 1551.58,983.807 "/> <polygon points="1552.876,431.042 1514.643,438.818 1545.1,460.851 "/> <polygon points="1553.525,868.459 1512.051,875.587 1539.916,904.748 "/> <polygon points="1510.107,661.091 1513.347,694.788 1553.525,663.683 "/> <polygon points="1545.1,460.851 1520.475,495.196 1551.58,488.068 "/> <polygon points="1517.235,642.298 1510.107,661.091 1553.525,663.683 "/> <polygon points="1525.659,375.311 1510.755,410.953 1549.636,409.657 "/> <polygon points="1523.715,989.64 1551.58,983.807 1544.452,966.311 "/> <polygon points="1520.475,517.877 1520.475,547.686 1541.212,516.581 "/> <polygon points="1514.643,1077.771 1541.86,1104.988 1540.564,1071.939 "/> <polygon points="1512.699,849.666 1512.051,875.587 1545.748,849.666 "/> <polygon points="1547.044,552.222 1520.475,547.686 1547.044,574.903 "/> <polygon points="1539.916,904.748 1521.771,929.373 1548.988,926.781 "/> <polygon points="1518.531,734.318 1525.659,760.887 1541.212,729.781 "/> <polygon points="1510.755,1047.314 1544.452,1047.314 1522.419,1011.025 "/> <polygon points="1541.212,729.781 1525.659,760.887 1549.636,749.222 "/> <polygon points="1510.755,1047.314 1540.564,1071.939 1544.452,1047.314 "/> <polygon points="1544.452,702.564 1518.531,734.318 1541.212,729.781 "/> <polygon points="1513.347,694.788 1518.531,734.318 1544.452,702.564 "/> <polygon points="1545.1,318.285 1519.827,313.101 1516.587,342.262 "/> <polygon points="1547.044,574.903 1520.475,547.686 1513.347,585.92 "/> <polygon points="1517.883,1111.469 1541.86,1104.988 1514.643,1077.771 "/> <polygon points="1516.587,906.692 1521.771,929.373 1539.916,904.748 "/> <polygon points="1520.475,495.196 1520.475,517.877 1541.212,516.581 "/> <polygon points="1512.699,952.702 1523.715,989.64 1544.452,966.311 "/> <polygon points="1512.699,815.321 1491.314,838.002 1512.699,849.666 "/> <polygon points="1493.906,341.614 1493.258,377.256 1516.587,342.262 "/> <polygon points="1484.186,470.571 1490.018,490.012 1519.827,457.611 "/> <polygon points="1520.475,547.686 1494.554,558.703 1513.347,585.92 "/> <polygon points="1495.85,1011.673 1510.755,1047.314 1522.419,1011.025 "/> <polygon points="1512.699,952.702 1492.61,959.183 1523.715,989.64 "/> <polygon points="1492.61,959.183 1482.242,989.64 1523.715,989.64 "/> <polygon points="1518.531,734.318 1491.962,762.183 1525.659,760.887 "/> <polygon points="1525.659,760.887 1491.962,762.183 1518.531,788.752 "/> <polygon points="1525.659,375.311 1493.258,377.256 1510.755,410.953 "/> <polygon points="1520.475,517.877 1481.594,517.229 1520.475,547.686 "/> <polygon points="1512.051,875.587 1490.666,896.972 1516.587,906.692 "/> <polygon points="1520.475,547.686 1481.594,517.229 1494.554,558.703 "/> <polygon points="1520.475,495.196 1490.018,490.012 1520.475,517.877 "/> <polygon points="1521.771,929.373 1495.85,925.485 1512.699,952.702 "/> <polygon points="1482.242,989.64 1495.85,1011.673 1523.715,989.64 "/> <polygon points="1484.834,1099.156 1517.883,1111.469 1491.962,1082.955 "/> <path d="M1519.827,313.101h-8.997c-3.819,3.301-8.288,7.661-13.782,13.907c-1.879,2.135-3.74,4.243-5.588,6.329l2.445,8.277 L1519.827,313.101z"/> <polygon points="1510.107,661.091 1488.074,690.9 1513.347,694.788 "/> <polygon points="1513.347,585.92 1484.186,609.249 1518.531,613.785 "/> <polygon points="1518.531,613.785 1484.186,609.249 1488.722,645.538 "/> <polygon points="1491.962,762.183 1486.13,790.048 1518.531,788.752 "/> <polygon points="1491.962,1082.955 1514.643,1077.771 1510.755,1047.314 "/> <polygon points="1519.827,457.611 1489.37,437.522 1484.186,470.571 "/> <polygon points="1517.235,642.298 1488.722,645.538 1510.107,661.091 "/> <path d="M1484.834,1099.156l-2.115,20.729c5.053,1.011,10.155,1.733,15.291,2.23l19.874-10.647L1484.834,1099.156z"/> <polygon points="1482.242,1046.666 1510.755,1047.314 1495.85,1011.673 "/> <polygon points="1485.482,580.736 1484.186,609.249 1513.347,585.92 "/> <polygon points="1491.314,838.002 1486.778,871.699 1512.699,849.666 "/> <polygon points="1482.242,406.417 1489.37,437.522 1510.755,410.953 "/> <polygon points="1488.722,645.538 1484.186,661.091 1510.107,661.091 "/> <polygon points="1482.89,721.357 1460.857,762.831 1491.962,762.183 "/> <polygon points="1492.61,959.183 1458.913,967.607 1482.242,989.64 "/> <path d="M1493.258,377.256l-26.031-16.528c-4.355,4.988-8.601,9.925-12.73,14.864l0.528,6.2L1493.258,377.256z"/> <path d="M1493.906,341.614l-12.365,2.898c-4.893,5.508-9.666,10.892-14.314,16.215l26.031,16.528L1493.906,341.614z"/> <polygon points="1481.594,517.229 1461.505,550.926 1494.554,558.703 "/> <polygon points="1457.617,1022.689 1482.242,1046.666 1495.85,1011.673 "/> <polygon points="1495.85,925.485 1462.153,932.613 1492.61,959.183 "/> <polygon points="1488.074,690.9 1463.449,701.916 1482.89,721.357 "/> <polygon points="1482.242,989.64 1457.617,1022.689 1495.85,1011.673 "/> <polygon points="1484.186,661.091 1463.449,671.459 1488.074,690.9 "/> <polygon points="1482.242,406.417 1459.561,427.802 1489.37,437.522 "/> <polygon points="1491.962,762.183 1460.857,762.831 1486.13,790.048 "/> <polygon points="1494.554,558.703 1461.505,550.926 1485.482,580.736 "/> <path d="M1487.852,337.407c-2.125,2.394-4.229,4.761-6.312,7.105l12.365-2.898L1487.852,337.407z"/> <polygon points="1490.018,490.012 1460.857,489.364 1481.594,517.229 "/> <polygon points="1484.186,609.249 1462.153,613.137 1466.689,639.058 "/> <polygon points="1461.505,550.926 1465.393,583.328 1485.482,580.736 "/> <polygon points="1488.722,645.538 1466.689,639.058 1484.186,661.091 "/> <polygon points="1462.153,788.104 1454.377,817.913 1485.482,817.265 "/> <polygon points="1455.025,865.219 1455.673,894.38 1486.778,871.699 "/> <polygon points="1463.449,671.459 1463.449,701.916 1488.074,690.9 "/> <polygon points="1460.857,982.511 1457.617,1022.689 1482.242,989.64 "/> <polygon points="1455.025,381.792 1453.081,403.825 1482.242,406.417 "/> <path d="M1454.281,1112.206c1.768,0.589,3.57,1.038,5.378,1.469l-5.282-4.15L1454.281,1112.206z"/> <polygon points="1454.377,817.913 1460.857,836.706 1485.482,817.265 "/> <polygon points="1481.594,517.229 1460.857,489.364 1456.321,519.821 "/> <polygon points="1463.449,701.916 1460.857,720.709 1482.89,721.357 "/> <polygon points="1466.689,639.058 1463.449,671.459 1484.186,661.091 "/> <polygon points="1453.081,403.825 1459.561,427.802 1482.242,406.417 "/> <polygon points="1432.992,990.288 1432.344,1019.449 1457.617,1022.689 "/> <polygon points="1431.696,1076.475 1454.377,1109.525 1458.913,1071.291 "/> <polygon points="1459.561,427.802 1433.64,458.259 1460.209,467.331 "/> <polygon points="1460.857,720.709 1437.528,749.87 1460.857,762.831 "/> <polygon points="1436.88,719.413 1437.528,749.87 1460.857,720.709 "/> <polygon points="1436.88,550.278 1435.584,580.736 1461.505,550.926 "/> <polygon points="1434.288,896.972 1462.153,932.613 1455.673,894.38 "/> <polygon points="1434.288,896.972 1424.567,923.541 1462.153,932.613 "/> <polygon points="1429.752,613.137 1436.88,644.89 1462.153,613.137 "/> <polygon points="1462.153,613.137 1435.584,580.736 1429.752,613.137 "/> <polygon points="1457.617,1022.689 1435.584,1047.314 1466.041,1053.146 "/> <polygon points="1466.689,639.058 1436.88,644.89 1463.449,671.459 "/> <polygon points="1462.153,613.137 1436.88,644.89 1466.689,639.058 "/> <polygon points="1460.857,489.364 1436.88,518.525 1456.321,519.821 "/> <polygon points="1463.449,701.916 1436.88,719.413 1460.857,720.709 "/> <polygon points="1423.919,662.387 1422.623,696.084 1463.449,671.459 "/> <polygon points="1436.88,518.525 1436.88,550.278 1456.321,519.821 "/> <polygon points="1460.209,467.331 1425.215,489.364 1460.857,489.364 "/> <polygon points="1422.623,696.084 1436.88,719.413 1463.449,701.916 "/> <polygon points="1430.4,790.048 1432.344,815.969 1454.377,817.913 "/> <polygon points="1437.528,749.87 1430.4,790.048 1460.857,762.831 "/> <polygon points="1458.913,967.607 1432.992,990.288 1460.857,982.511 "/> <polygon points="1454.377,817.913 1432.344,815.969 1460.857,836.706 "/> <polygon points="1432.344,815.969 1425.215,850.962 1460.857,836.706 "/> <polygon points="1432.344,1019.449 1435.584,1047.314 1457.617,1022.689 "/> <path d="M1453.081,403.825l-18.236-3.273c-0.745,1.017-1.484,2.038-2.219,3.063l26.935,24.187L1453.081,403.825z"/> <path d="M1452.028,378.564c-0.963,1.166-1.918,2.332-2.868,3.5l5.865-0.273L1452.028,378.564z"/> <path d="M1455.025,381.792l-11.613,7.465c-2.923,3.728-5.779,7.486-8.567,11.294l18.236,3.273L1455.025,381.792z"/> <path d="M1449.202,1110.029c0.448,0.206,0.943,0.445,1.501,0.727c1.17,0.579,2.366,1.047,3.578,1.45l0.096-2.682L1449.202,1110.029 z"/> <polygon points="1404.479,1040.186 1431.696,1076.475 1435.584,1047.314 "/> <polygon points="1436.88,550.278 1408.367,555.463 1435.584,580.736 "/> <polygon points="1436.88,518.525 1403.831,529.542 1436.88,550.278 "/> <polygon points="1425.215,489.364 1403.831,529.542 1436.88,518.525 "/> <polygon points="1437.528,959.183 1407.071,955.942 1432.992,990.288 "/> <polygon points="1424.567,923.541 1407.071,955.942 1437.528,959.183 "/> <polygon points="1432.344,815.969 1394.11,843.186 1425.215,850.962 "/> <polygon points="1405.775,895.676 1424.567,923.541 1434.288,896.972 "/> <polygon points="1398.646,490.66 1403.831,529.542 1425.215,489.364 "/> <polygon points="1396.702,808.841 1394.11,843.186 1432.344,815.969 "/> <path d="M1425.215,442.706l-23.444,14.066c-0.224,0.496-0.449,0.987-0.671,1.486h32.539L1425.215,442.706z"/> <polygon points="1396.054,935.206 1407.071,955.942 1424.567,923.541 "/> <polygon points="1396.054,872.995 1405.775,895.676 1426.511,865.219 "/> <polygon points="1405.775,603.416 1397.35,637.762 1429.752,613.137 "/> <path d="M1425.215,489.364l-24.737-29.684c-0.427,0.974-0.851,1.954-1.272,2.941l-0.561,28.039L1425.215,489.364z"/> <polygon points="1396.702,666.275 1399.294,696.084 1422.623,696.084 "/> <polygon points="1399.294,696.084 1401.239,728.485 1422.623,696.084 "/> <polygon points="1397.35,637.762 1396.702,666.275 1423.919,662.387 "/> <polygon points="1405.775,895.676 1396.054,935.206 1424.567,923.541 "/> <path d="M1398.646,490.66l-17.07,25.361c-0.661,2.655-1.309,5.35-1.939,8.095c-0.068,0.298-0.135,0.591-0.203,0.887l24.395,4.539 L1398.646,490.66z"/> <path d="M1387.469,1043.966c1.43,4.084,2.99,7.937,4.636,11.54l12.374-15.32L1387.469,1043.966z"/> <polygon points="1373.373,900.212 1396.054,935.206 1405.775,895.676 "/> <polygon points="1405.775,603.416 1370.133,606.657 1397.35,637.762 "/> <path d="M1407.071,990.288l-35.89-21.648c1.45,7.07,2.594,12.723,3.503,17.276l4.521,10.852L1407.071,990.288z"/> <path d="M1407.071,955.942l-36.716,8.742c0.081,0.36,0.161,0.72,0.233,1.07c0.203,0.988,0.4,1.948,0.593,2.885l35.89,21.648 V955.942z"/> <polygon points="1408.367,748.574 1375.965,760.887 1399.942,790.696 "/> <path d="M1403.831,529.542l-28.593,14.297c-0.318,1.466-0.632,2.923-0.94,4.364l34.069,7.261L1403.831,529.542z"/> <path d="M1396.054,935.206l-26.328,26.9c0.23,0.883,0.441,1.744,0.628,2.578l36.716-8.742L1396.054,935.206z"/> <polygon points="1396.054,872.995 1373.373,900.212 1405.775,895.676 "/> <path d="M1389.277,489.141c-2.765,8.454-5.335,17.384-7.701,26.88l17.07-25.361L1389.277,489.141z"/> <path d="M1396.702,1025.929l-11.883,9.619c0.812,2.911,1.702,5.713,2.649,8.417l17.01-3.78L1396.702,1025.929z"/> <polygon points="1366.245,931.965 1396.054,935.206 1373.373,900.212 "/> <polygon points="1372.077,661.091 1375.318,705.156 1396.702,666.275 "/> <polygon points="1396.702,666.275 1375.318,705.156 1399.294,696.084 "/> <polygon points="1377.91,641.65 1372.077,661.091 1396.702,666.275 "/> <polygon points="1375.318,705.156 1364.949,728.485 1401.239,728.485 "/> <polygon points="1375.965,789.4 1373.373,808.193 1396.702,808.841 "/> <polygon points="1373.373,808.193 1367.541,849.018 1394.11,843.186 "/> <path d="M1373.526,551.839c-2.132,10.104-4.019,19.575-5.688,28.468l28.217-5.403L1373.526,551.839z"/> <path d="M1370.133,869.107l-23.329,5.184l1.564,1.526c1.616-0.087,3.219-0.351,4.779-0.815c0.069,0.26,0.199,0.774,0.264,1.033 c-0.073,0.425,0.014,2.259,0.198,4.895l19.764,19.282L1370.133,869.107z"/> <path d="M1372.077,661.091l-16.658,24.1c-0.151,7.653-0.065,14.183,0.054,19.965h19.843L1372.077,661.091z"/> <path d="M1375.965,760.887l-23.973,2.04c0.084,0.487,0.175,0.979,0.278,1.478c0.032,3.23,1.759,4.749,2.944,7.334l20.751,17.661 V760.887z"/> <path d="M1364.949,728.485l-13.662,24.591c-0.082,2.734,0.057,6.111,0.706,9.85l23.973-2.04L1364.949,728.485z"/> <path d="M1377.91,641.65l-19.592,0.871c-0.276,2.501-0.527,4.926-0.756,7.28l14.516,11.29L1377.91,641.65z"/> <path d="M1374.684,985.916c0.819,4.104,1.448,7.316,1.934,9.86l2.587,0.992L1374.684,985.916z"/> <path d="M1377.098,998.311c0.276,1.477,0.491,2.665,0.661,3.64l1.447-5.184L1377.098,998.311z"/> <path d="M1363.296,606.266c-0.911,5.653-1.721,11.026-2.44,16.135l9.278-15.744L1363.296,606.266z"/> <path d="M1373.373,900.212l-18.286-1.742c0.697,7.608,1.355,14.279,1.405,14.564c0.006,0.791,0.049,1.613,0.116,2.454l9.637,16.477 L1373.373,900.212z"/> <path d="M1355.214,771.739c0.793,1.731,1.343,3.938,0.976,7.459c-0.371,3.558-1.428,7.075-1.169,10.642 c0.023,0.31,0.056,0.619,0.095,0.927l20.849-1.367L1355.214,771.739z"/> <path d="M1375.318,705.156h-19.843c0.107,5.217,0.241,9.827,0.251,14.105l9.224,9.224L1375.318,705.156z"/> <path d="M1361.746,937.18c1.463,4.539,3.046,9.118,4.499,13.501v-18.716L1361.746,937.18z"/> <path d="M1355.661,800.424c-0.897,2.525-2.772,4.591-3.796,7.31c-0.475,1.26-0.974,2.447-1.494,3.577l23.002-3.119 L1355.661,800.424z"/> <polygon points="1346.804,874.291 1370.133,869.107 1367.541,849.018 "/> <path d="M1355.601,726.148c-0.131,3.012-0.38,5.924-0.811,8.853c-0.362,0.784-2.21,10.058-2.645,11.083 c-0.148,0.371-0.738,2.994-0.858,6.992l13.662-24.591L1355.601,726.148z"/> <polygon points="1379.206,237.306 1351.242,231.85 1364.626,269.931 "/> <polygon points="1320.442,174.786 1294.34,163.366 1299.101,203.45 "/> <polygon points="1284.162,287.079 1258.134,275.489 1262.635,315.603 "/> <polygon points="1258.373,358.859 1230.469,353.107 1243.449,391.329 "/> <polygon points="1282.491,374.587 1254.281,370.593 1269.628,407.927 "/> <polygon points="1262.606,205.595 1239.092,189.506 1236.292,229.774 "/> <polygon points="1183.497,254.414 1161.415,236.412 1155.25,276.303 "/> <polygon points="1144.13,346.301 1115.835,342.962 1132.044,379.93 "/> <polygon points="1126.099,467.501 1099.401,477.449 1130.7,502.939 "/> <polygon points="1093.216,658.372 1069.042,673.449 1104.799,692.179 "/> <polygon points="1151.887,713.618 1125.846,725.176 1158.641,748.71 "/> <polygon points="1188.007,721.664 1161.016,730.786 1191.515,757.228 "/> <polygon points="1234.994,683.757 1207.59,691.551 1236.763,719.448 "/> <polygon points="1296.813,533.599 1268.379,535.402 1290.969,568.853 "/> <polygon points="1298.832,478.095 1270.356,479.028 1291.914,513.155 "/> <polygon points="1188.729,414.972 1160.242,415.457 1181.26,449.918 "/> <polygon points="1016.207,342.536 997.105,363.675 1036.632,371.859 "/> <polygon points="937.199,366.938 930.557,394.644 969.174,382.893 "/> <polygon points="904.006,533.616 902.463,562.065 938.333,543.552 "/> <polygon points="956.121,683.224 938.378,705.516 978.339,711.213 "/> <polygon points="1044.804,828.985 1016.416,826.558 1033.805,862.986 "/> <polygon points="1090.512,940.962 1062.192,944.08 1086.308,976.45 "/> <polygon points="1124.11,972.351 1098.611,985.06 1132.425,1007.105 "/> <polygon points="1207.536,944.404 1182.059,957.158 1215.911,979.145 "/> <polygon points="1227.602,769.818 1199.598,775.066 1226.09,805.522 "/> <polygon points="1221.017,617.95 1192.813,621.983 1217.964,653.554 "/> <polygon points="1111.068,539.168 1085.686,552.108 1119.698,573.846 "/> <polygon points="989.72,626.98 974.791,651.247 1015.147,652.09 "/> <polygon points="852.095,855.497 824.12,860.896 850.776,891.208 "/> <polygon points="754.269,1040.674 725.778,1040.624 746.145,1075.474 "/> <polygon points="768.541,1097.029 743.742,1111.056 778.663,1131.301 "/> <polygon points="947.307,1045.155 926.878,1065.015 965.793,1075.737 "/> <polygon points="1018.34,1006.664 994.66,1022.506 1030.997,1040.083 "/> <polygon points="1124.829,933.27 1096.815,938.457 1123.241,968.97 "/> <polygon points="1136.56,870.93 1108.073,871.347 1129.009,905.858 "/> <polygon points="983.465,765.773 958.355,779.235 992.81,800.265 "/> <polygon points="774.659,757.253 751.046,773.197 787.459,790.618 "/> <polygon points="501.568,640.293 506.014,668.435 537.214,642.824 "/> <polygon points="460.477,626.13 465.174,654.232 496.144,628.343 "/> <polygon points="424.219,705.321 439.315,729.483 458.016,693.711 "/> <polygon points="544.402,792.731 545.265,821.208 579.445,799.735 "/> <polygon points="807.854,905.96 780.247,898.921 791.44,937.703 "/> <polygon points="939.662,939.909 912.881,949.631 943.964,975.384 "/> <polygon points="1119.746,903.387 1091.256,903.13 1111.37,938.127 "/> <polygon points="1038.486,615.42 1019.304,636.486 1058.799,644.821 "/> <polygon points="893.932,511.119 893.498,539.607 928.619,519.711 "/> <polygon points="766.171,464.339 769.889,492.587 801.74,467.79 "/> <polygon points="655.645,428.047 658.958,456.345 691.16,432.006 "/> <polygon points="464.296,438.262 465.475,466.728 499.414,444.875 "/> <polygon points="355.669,530.127 357.041,558.585 390.831,536.503 "/> <polygon points="581.871,646.47 583.307,674.925 617.047,652.767 "/> <polygon points="768.601,611.516 768.279,640.006 803.322,619.972 "/> <polygon points="913.309,547.064 910.69,575.434 947.234,558.292 "/> <polygon points="1037.184,431.233 1019.951,453.922 1060.032,458.71 "/> <polygon points="1084.24,366.92 1057.952,377.905 1090.224,402.15 "/> <polygon points="901.358,405.628 899.392,434.051 935.533,416.073 "/> <polygon points="702.396,523.22 705.807,551.506 737.925,527.057 "/> <polygon points="615.363,573.024 617.534,601.432 650.691,578.41 "/> <polygon points="560.263,590.346 562.569,618.743 595.615,595.563 "/> <polygon points="531.422,605.054 534.214,633.408 566.859,609.667 "/> <polygon points="654.119,650.357 652.95,678.824 688.573,659.841 "/> <polygon points="808.957,789.174 782.413,799.527 814.096,824.538 "/> <polygon points="812.926,876.744 784.726,872.685 799.987,910.055 "/> <polygon points="694.519,962.688 684.595,935.982 659.077,967.258 "/> <polygon points="623.528,962.683 606.192,940.074 590.995,977.469 "/> <polygon points="580.726,951.601 554.085,941.504 560.849,981.298 "/> <polygon points="554.872,908.388 528.161,918.302 559.428,943.832 "/> <polygon points="701.235,801.381 673.074,805.708 698.553,837.016 "/> <polygon points="911.035,711.411 893,733.467 932.882,739.691 "/> <polygon points="907.861,677.586 894.307,702.646 934.647,701.241 "/> <polygon points="814.952,613.913 813.056,642.341 849.153,624.275 "/> <polygon points="821.322,581.941 821.492,610.432 856.184,589.796 "/> <polygon points="882.538,799.478 857.111,812.329 891.047,834.185 "/> <polygon points="924.725,970.395 899.737,984.083 934.378,1004.802 "/> <polygon points="1095.946,1017.233 1073.483,1034.758 1111.004,1049.642 "/> <polygon points="1189.667,1038.604 1169.252,1058.478 1208.175,1069.174 "/> <polygon points="1279.98,1012.116 1255.432,1026.578 1290.705,1046.204 "/> <polygon points="1298.022,977.532 1272.809,990.8 1307.1,1012.095 "/> <polygon points="1282.983,896.841 1256.275,906.762 1287.549,932.284 "/> <polygon points="1304.313,767.131 1276.075,770.918 1300.949,802.708 "/> <polygon points="1299.02,724.244 1270.868,728.621 1296.402,759.884 "/> <polygon points="1207.76,645.911 1179.955,652.124 1207.483,681.646 "/> <polygon points="1191.951,645.991 1164.302,652.867 1192.529,681.722 "/> <polygon points="1178.654,601.584 1150.738,607.278 1177.711,637.307 "/> <polygon points="1143.719,568.875 1116.558,577.478 1146.545,604.499 "/> <polygon points="1157.881,541.116 1130.159,547.691 1158.07,576.852 "/> <polygon points="1213.203,492.731 1184.714,493.058 1205.54,527.636 "/> <polygon points="1230.729,479.015 1202.238,478.931 1222.563,513.805 "/> <polygon points="1210.346,461.171 1181.857,461.536 1202.731,496.085 "/> <polygon points="1083.31,499.703 1060.679,517.012 1098.056,532.254 "/> <polygon points="1026.452,515.073 1011.042,539.037 1051.374,540.684 "/> <polygon points="994.377,495.571 983.86,522.05 1023.757,515.915 "/> <polygon points="985.466,432.491 975.898,459.328 1015.551,451.777 "/> <polygon points="1073.899,215.747 1046.818,206.895 1055.418,246.333 "/> <polygon points="1089.63,186.912 1064.124,174.216 1066.898,214.485 "/> <polygon points="1122.707,162.035 1099.335,145.74 1096.182,185.982 "/> <polygon points="1157.733,92.694 1133.802,77.233 1132.069,117.562 "/> <polygon points="1029.485,90.486 1002.879,80.297 1009.505,120.114 "/> <polygon points="895.493,117.205 868.852,127.304 900.295,152.616 "/> <polygon points="752.024,255.726 748.174,283.956 785.429,268.42 "/> <polygon points="710.183,328.446 711.335,356.914 745.295,335.095 "/> <polygon points="686.356,321.684 687.111,350.165 721.371,328.821 "/> <polygon points="800.406,290.039 797.991,318.427 834.412,301.023 "/> <polygon points="946.552,248.449 929.781,271.481 969.95,275.459 "/> <polygon points="957.054,209.088 933.007,224.369 968.921,242.796 "/> <polygon points="836.929,248.268 829.024,275.64 868.139,265.673 "/> <polygon points="679.36,217.618 672.908,245.369 711.444,233.354 "/> <polygon points="534.934,202.374 524.097,228.723 564.064,223.073 "/> <polygon points="523.16,368.686 523.581,397.174 558.09,376.232 "/> <polygon points="538.965,444.843 541.518,473.219 574.361,449.753 "/> <polygon points="502.644,505.852 504.966,534.249 538,511.05 "/> <polygon points="371.44,674.201 382.163,700.597 406.728,668.567 "/> <polygon points="326.894,748.361 344.394,770.844 359.319,733.34 "/> <polygon points="311.055,805.878 328.295,828.561 343.651,791.231 "/> <polygon points="244.663,921.899 218.946,934.162 252.371,956.793 "/> <polygon points="262.288,1008.021 233.843,1006.404 252.262,1042.321 "/> <polygon points="385.666,976.061 357.213,974.601 375.83,1010.417 "/> <polygon points="446.697,1033.708 418.213,1034.355 439.428,1068.696 "/> <polygon points="285.22,1066.547 256.731,1066.152 276.675,1101.246 "/> <polygon points="451.411,1094.255 425.077,1083.381 430.671,1123.357 "/> <polygon points="518.795,997.757 490.792,992.509 504.457,1030.49 "/> <polygon points="445.132,901.071 450.562,929.039 480.845,902.35 "/> <polygon points="386.224,880.93 405.523,901.889 417.296,863.279 "/> <polygon points="348.009,895.388 351.672,923.643 383.571,898.908 "/> <polygon points="359.527,905.571 359.037,934.058 394.197,914.23 "/> <polygon points="405.278,854.727 429.536,869.67 430.401,829.314 "/> <polygon points="555.472,756.611 555.699,785.101 590.349,764.395 "/> <polygon points="668.625,683.262 663.375,711.265 701.357,697.603 "/> <polygon points="617.402,695.86 613.564,724.091 650.813,708.539 "/> <polygon points="286.656,929.489 262.842,945.128 299.028,963.015 "/> <polygon points="132.646,1038.768 104.201,1040.39 126.58,1073.985 "/> <polygon points="86.352,1093.211 58.25,1097.902 84.132,1128.877 "/> <polygon points="194.774,1088.796 166.291,1089.498 187.572,1123.798 "/> <polygon points="502.189,951.891 475.581,962.076 507.105,987.287 "/> <polygon points="600.284,844.959 574.494,857.068 607.782,879.899 "/> <polygon points="867.087,756.282 844.724,773.934 882.329,788.604 "/> <polygon points="947.97,761.229 924.224,776.972 960.487,794.701 "/> <polygon points="1023.411,931.651 995.065,928.772 1011.872,965.472 "/> <polygon points="1047.662,950.868 1019.312,953.693 1043.092,986.31 "/> </g> </svg>