<?xml version='1.0' encoding='utf-8'?>
<svg xmlns="http://www.w3.org/2000/svg" version="1.1" width="600px" height="976px" viewBox="0 0 600 976"> <g id="layer1"> <g> <g style="fill:rgb(0,0,0); fill-opacity:1.0; stroke-linejoin: miter"> <path d="M230.88834,355.5501C233.84497,355.78986,238.39981,356.46912,241.07678,357.04846C243.37418,357.54785,251.28522,360.08496,252.40396,360.68433C252.76355,360.86414,253.10315,361.04388,253.16309,361.04388C253.22302,361.04388,254.42166,361.62323,255.84006,362.3025C261.194,364.87952,266.16837,368.7951,268.44577,372.2312C271.02283,376.08685,271.28256,378.32434,269.58447,381.72046L268.8453,383.21875L268.8653,386.21533C268.88525,388.13318,269.06506,390.27075,269.34476,392.10864C269.58447,393.7069,269.80423,395.2851,269.8242,395.6247C269.86417,395.96436,269.92407,396.3239,269.984,396.42383C270.04395,396.52368,270.16382,397.2229,270.22375,398.002C270.30365,398.7611,270.5434,400.51917,270.76312,401.89758C271.00287,403.276,271.1427,404.73438,271.08276,405.1339C271.02283,405.55347,270.58334,406.53235,270.0839,407.31146C269.58447,408.09058,268.90524,409.489,268.5656,410.40796C267.28708,413.904,267.26712,416.74078,268.44577,421.35553C269.24484,424.55194,269.26483,424.87158,268.74542,426.01025C268.46573,426.66956,268.04623,427.0691,266.98743,427.7483C265.46915,428.72717,265.34927,428.90698,264.76993,431.4441C264.47028,432.80255,264.2705,433.24207,263.69116,433.84137C263.11182,434.42072,262.932,434.8003,262.7722,435.75922C262.6723,436.41846,262.3127,437.53723,261.9731,438.2564C261.37378,439.495,261.35382,439.6548,261.35382,442.17194C261.35382,446.10748,260.9343,447.80554,259.63574,449.12408C258.7967,449.9431,258.39716,450.18286,256.31952,451.04187C255.2807,451.46143,254.46161,451.9209,254.46161,452.06073C254.46161,452.83984,260.95425,455.85645,268.5656,458.6333C270.6233,459.39246,272.50116,460.11163,272.7409,460.23145C273.0006,460.37134,274.91843,461.05054,277.01605,461.74976C279.11368,462.46893,281.09143,463.16815,281.43106,463.328C281.75067,463.46783,283.68848,464.1071,285.72617,464.72638C291.3598,466.44446,293.05786,467.06372,295.0756,468.12256C297.49283,469.3811,300.32962,472.69736,302.1076,476.31326C302.9267,477.97137,303.6259,480.7882,304.22522,484.7437C304.9644,489.61816,305.04428,490.35736,305.60364,498.48813C306.72238,514.8895,307.062,518.2457,308.2806,525.55743C309.53918,533.12885,310.19846,536.0056,311.71674,540.3407C313.57462,545.65466,314.114,546.4937,315.73218,546.6735C316.61118,546.77344,318.94852,546.3339,320.08725,545.8744C320.24707,545.7945,322.22482,545.23517,324.48227,544.61584C326.7397,543.9966,329.07706,543.3573,329.67636,543.1775C330.2757,542.9977,330.81506,542.8379,330.875,542.8379C330.93494,542.8179,331.11475,542.738,331.27457,542.67804C331.81393,542.4383,334.1513,542.1387,335.3699,542.1387C336.62848,542.1387,338.9858,542.4583,339.3454,542.698C339.46527,542.75793,339.70502,542.85785,339.9048,542.8778C341.0235,543.0576,347.4962,545.21515,350.45282,546.4138C351.172,546.6935,353.00992,547.3927,354.5482,547.9521C356.08643,548.5114,357.46487,549.05084,357.58475,549.17065C357.72458,549.2905,357.84445,549.31055,357.84445,549.2306C357.84445,549.1507,357.9643,549.17065,358.08417,549.2905C358.22403,549.4104,359.86215,550.0497,361.74002,550.7289C363.59793,551.40814,365.69556,552.22723,366.39474,552.5469C367.07397,552.86646,367.69327,553.1262,367.73325,553.1262C367.8531,553.1262,372.8075,554.9641,373.72644,555.3437C374.58548,555.6833,374.64542,555.70325,375.3446,555.84314C376.12372,555.983,376.84293,555.5635,377.42227,554.6245C377.86176,553.90533,379.71967,549.77,381.85724,544.7357C382.61636,542.9178,383.31558,541.33954,383.41547,541.2397C383.49536,541.1198,384.1147,539.7813,384.77393,538.24304C386.3921,534.4873,389.54852,527.75494,389.88812,527.37537C390.02798,527.19556,390.4475,526.51636,390.8071,525.8571C392.08563,523.5198,394.0634,521.44214,396.50064,519.8639C398.9179,518.30566,407.58807,514.1104,412.4825,512.1726C413.9009,511.61325,415.1595,511.07385,415.27936,510.97397C415.37924,510.89404,417.05734,510.2348,418.97516,509.51563C420.893,508.77646,423.0905,507.93744,423.86963,507.6178C424.62875,507.29816,426.74634,506.51904,428.5643,505.87976C430.38223,505.24048,431.96045,504.66113,432.06033,504.58124C432.2401,504.4214,437.69394,502.52356,442.8681,500.76556C444.0867,500.366,445.60498,499.9265,446.22427,499.78665C447.28308,499.5669,447.4429,499.58688,448.30194,500.02637C449.5605,500.6457,450.0,501.48474,449.84018,502.96307C449.7403,504.02185,448.70148,507.438,448.36188,507.8775C448.26196,507.97736,447.68262,509.3758,447.04333,510.97397C446.40408,512.57214,445.58502,514.47003,445.2254,515.20917C444.8658,515.92834,444.22656,517.3268,443.827,518.30566C443.42746,519.2646,442.64832,520.96265,442.10895,522.0614C441.56955,523.16016,440.9303,524.49866,440.71054,525.058C440.49078,525.5974,439.75162,527.2156,439.0524,528.65393C438.37317,530.0723,437.41428,532.11,436.95477,533.14886C436.4953,534.1877,435.876,535.4862,435.55637,536.04553C435.2567,536.58496,434.75726,537.6238,434.4576,538.323C433.97815,539.50165,432.7995,541.95886,429.2635,549.2306C428.5643,550.64905,427.22583,553.4458,426.2669,555.4236C421.11273,566.11145,418.83533,570.4865,417.33704,572.66406C416.03848,574.54193,411.0841,577.7583,403.5926,581.534C401.23526,582.73267,399.0977,583.89136,398.85797,584.1311C398.61823,584.3508,398.31857,584.9901,398.17874,585.56946C398.05887,586.1288,397.8591,586.80804,397.73923,587.0877C397.6194,587.36743,397.51947,587.6271,397.4995,587.687C397.47952,587.74695,397.3197,588.1465,397.11993,588.586C396.58054,589.8246,396.7204,590.08435,398.23865,590.58374C399.85684,591.12317,400.83572,591.7225,401.15536,592.3218C401.93448,593.80005,401.8146,595.1985,400.8557,596.11743C399.8169,597.11633,398.97784,597.3161,395.00232,597.51587C392.7249,597.6157,390.92694,597.81555,390.32764,597.99536C389.16895,598.3549,387.57077,599.4137,385.2334,601.3115C382.89606,603.2494,382.4166,603.4491,379.53986,603.7488C377.42227,603.9486,376.9428,604.0685,375.9639,604.6278C373.8463,605.8264,372.04834,605.8664,369.711,604.76764C369.13165,604.4879,368.5723,604.2682,368.4724,604.2682C368.37253,604.2682,367.7532,604.54785,367.11395,604.86755C366.47467,605.20715,365.59567,605.5268,365.17615,605.6067C364.35706,605.72656,361.8399,605.1472,361.8399,604.8276C361.8399,604.72766,361.76,604.68774,361.66013,604.7477C361.56024,604.8276,361.44037,604.8076,361.40042,604.72766C361.26056,604.38806,359.2828,603.6289,358.88327,603.7488C358.48373,603.8887,356.84558,605.6267,352.39063,610.6011C349.09436,614.2969,347.03668,616.1947,346.15768,616.3745C344.53952,616.6742,342.12225,615.91504,339.44528,614.2969C334.45096,611.24036,331.9338,609.6022,327.5388,606.5856C325.80075,605.38696,323.52335,603.82874,322.48453,603.1095C321.4457,602.4103,320.3669,601.6312,320.08725,601.37146C319.40802,600.7522,314.0341,597.2362,312.7955,596.6169C312.23615,596.3572,311.35712,595.9776,310.81775,595.79785C309.49924,595.3583,309.21954,595.57806,309.39935,596.95654C309.57913,598.2151,310.8577,603.4092,311.1174,603.8487C311.35712,604.2682,312.45587,608.8031,313.3948,613.15814C313.79437,615.016,314.1939,616.73413,314.31378,616.95386C314.5735,617.4932,315.05295,620.0903,314.95306,620.3899C314.87314,620.5897,302.4672,620.64966,253.82236,620.64966L192.7915,620.64966L192.91138,620.1902C193.23102,619.05145,194.62943,613.57764,195.009,611.9595C195.8081,608.54333,196.08777,605.1472,196.10776,599.0741C196.12772,595.9376,196.06781,593.14087,195.96793,592.8412C195.68823,591.7824,195.18878,591.6825,192.83145,592.102C191.67279,592.3218,189.33542,592.68134,187.63736,592.9011C183.2024,593.48047,181.92383,593.2607,179.4866,591.54266C177.96832,590.46387,175.21143,587.727,173.99283,586.08887C173.55331,585.4895,172.93402,584.71045,172.63437,584.39075C171.27591,582.89246,167.02072,576.0402,165.30267,572.6041C162.94534,567.8695,162.18619,566.2713,161.34714,564.1737C160.84772,562.8751,160.20844,561.3369,159.92874,560.73755C158.9898,558.63995,156.35281,550.34937,155.5737,547.0331C155.294,545.81445,154.73465,543.1775,154.35507,541.1398C153.9755,539.1021,153.57596,537.1243,153.47607,536.74475C152.91672,534.5872,151.53827,522.9404,150.97891,515.66864C150.7991,513.3513,150.55939,510.61438,150.45947,509.57556C150.13986,506.69882,150.0,492.6947,150.2597,490.1975C151.15869,481.7471,152.15756,478.47083,154.33508,476.83267C155.49377,475.97363,157.29175,475.0147,157.77121,475.0147C158.2107,475.0147,169.87747,470.34003,171.43573,469.54095C171.79532,469.34116,173.33356,468.66193,174.83188,468.02264C181.26459,465.28577,188.53635,461.62988,190.73386,460.03174C193.91025,457.7343,195.04895,456.7754,196.84692,454.85754C198.86462,452.74,202.081,448.6646,202.70029,447.46594C203.23969,446.44708,204.33844,445.34833,205.21744,444.9488C205.91663,444.62915,206.05649,444.44934,206.3162,443.59033C206.47601,443.031,206.61584,442.41168,206.61584,442.23187C206.61584,442.0321,206.71573,441.81238,206.81561,441.75244C206.93549,441.6725,206.95544,441.53265,206.89554,441.41284C206.81561,441.29297,207.19519,440.81348,207.73459,440.354L208.71347,439.495L208.69348,435.93903C208.69348,432.5229,208.31393,429.2666,207.83447,428.30768C207.73459,428.12787,207.19519,426.52966,206.61584,424.77167C206.0365,423.01367,205.25739,420.89606,204.8778,420.07703C204.49823,419.25793,203.63922,417.24023,202.97995,415.5821C202.32071,413.94397,201.5216,412.04608,201.20197,411.36682C200.52274,409.9085,198.7248,404.55457,198.50504,403.39587C198.4451,402.95642,198.30527,402.49695,198.20538,402.39703C198.12546,402.27716,197.94568,401.37817,197.80582,400.3993C197.54611,398.4615,197.68597,391.0299,198.00562,389.21198C198.1055,388.6526,198.42514,386.91455,198.7048,385.3164C199.56384,380.5818,200.30301,378.0846,201.5416,375.62738C202.76022,373.2301,203.25964,372.49097,205.31732,369.93384C207.47488,367.23688,208.35388,365.79846,209.21289,363.46118C210.23175,360.68433,210.75116,359.82532,212.04968,358.6466C213.7078,357.14832,215.98523,356.2893,219.70102,355.74988C221.69876,355.4502,228.31125,355.35034,230.88834,355.5501 Z"/> </g> </g> </g> </svg>