<?xml version="1.0" encoding="UTF-8"?>
<svg version="1.1" viewBox="0 0 2500 2500" xmlns="http://www.w3.org/2000/svg">
 <g transform="translate(0 1447.6)">
  <path transform="translate(0 -1447.6)" d="m254.54 476.42c-48.502 0-87.549 35.813-87.549 80.299v1278.5c0 44.485 39.047 80.299 87.549 80.299h1981.1c48.502 0 87.549-35.813 87.549-80.299v-1278.5c0-44.485-39.047-80.299-87.549-80.299h-1981.1zm990.54 32.055a30 30 0 0 1 30 30 30 30 0 0 1 -30 30 30 30 0 0 1 -30 -30 30 30 0 0 1 30 -30zm-947.34 91.576h1894.7v1191.8h-1894.7v-1191.8zm780.35 1233.8h333.99c10.884 0 19.646 8.7624 19.646 19.646 0 10.884-8.7624 19.645-19.646 19.645h-333.99c-10.884 0-19.646-8.7605-19.646-19.645 0-10.884 8.7624-19.646 19.646-19.646z" fill="#1a1a1a"/>
 </g>
</svg>
